<svg width="128" height="128" xmlns="http://www.w3.org/2000/svg" xmlns:xlink="http://www.w3.org/1999/xlink">
  <defs>
    <linearGradient gradientUnits="userSpaceOnUse" x1="-819.2" x2="819.2" spreadMethod="pad" gradientTransform="matrix(-0.0028076171875 -0.010467529296875 0.0158843994140625 -0.004241943359375 74.05 110.05)" id="gradient0">
      <stop offset="0" stop-color="#5DD4AA"/>
      <stop offset="1" stop-color="#4CC299"/>
    </linearGradient>
    <linearGradient gradientUnits="userSpaceOnUse" x1="-819.2" x2="819.2" spreadMethod="pad" gradientTransform="matrix(0.0021820068359375 -0.0081329345703125 -0.015869140625 -0.0042724609375 48.2 106.05)" id="gradient1">
      <stop offset="0" stop-color="#5DD4AA"/>
      <stop offset="1" stop-color="#4CC299"/>
    </linearGradient>
    <linearGradient gradientUnits="userSpaceOnUse" x1="-819.2" x2="819.2" spreadMethod="pad" gradientTransform="matrix(-0.0074462890625 0.0074462890625 0.008758544921875 0.008758544921875 91.4 89.6)" id="gradient2">
      <stop offset="0" stop-color="#5DD4AA"/>
      <stop offset="1" stop-color="#4CC299"/>
    </linearGradient>
    <linearGradient gradientUnits="userSpaceOnUse" x1="-819.2" x2="819.2" spreadMethod="pad" gradientTransform="matrix(0 0.04229736328125 0.042236328125 0 63.85 67.6)" id="gradient3">
      <stop offset="0" stop-color="#FFFFFF"/>
      <stop offset="1" stop-color="#C4E7F3"/>
    </linearGradient>
  </defs>
  <g>
    <path stroke="none" fill="#353541" d="M63.85 29 Q79.8 29 91.1 40.35 L91.1 40.3 Q102.5 51.6 102.5 67.55 102.5 73.6 100.9 79 102.4 81 102.7 83.65 L102.7 83.75 Q103.15 87.8 100.65 91 L100.6 91 Q95.8 97 89.2 100.5 88.05 103.65 85.8 106.55 86.8 110.65 86.95 116.8 L86.95 116.85 Q86.95 120.8 84.25 123.85 L84.1 124 Q81.35 126.75 77.3 126.95 L77.15 126.95 Q73.05 126.95 70.2 124.2 L70.1 124.15 Q67.1 121.3 67.1 117.1 L67.1 116.9 63.8 117.05 56.95 116.35 Q55.7 118.4 53.4 119.65 L53.3 119.7 Q49.75 121.6 45.85 120.5 L45.8 120.5 Q41.9 119.3 39.9 115.75 34.9 106.65 34.7 101.05 32.1 98.8 29.85 96 27.35 92.8 27.75 88.75 L27.75 88.65 Q28.05 86.5 29.1 84.8 25.2 77 25.2 67.55 25.2 51.6 36.45 40.35 47.85 29 63.85 29"/>
    <path stroke="none" fill="url(#gradient0)" d="M79.2 101.55 Q82.7 105.35 82.95 116.85 82.95 119.3 81.3 121.15 79.6 122.85 77.15 122.95 74.65 122.95 72.9 121.25 71.1 119.6 71.1 117.1 71 112.7 70.4 110.3 68.55 111.25 66.45 110.75 64.1 110.2 62.75 108.1 61.45 106.05 62 103.7 62.55 101.3 64.6 100 74.25 93.8 79.2 101.55"/>
    <path stroke="none" fill="url(#gradient1)" d="M38.95 98.65 Q39.4 89.5 50.85 90 53.3 90.1 54.95 91.9 56.6 93.7 56.5 96.15 56.4 98.6 54.6 100.25 53.05 101.7 50.95 101.85 51.65 104.2 53.8 108.1 55 110.25 54.3 112.6 53.6 114.95 51.45 116.15 49.3 117.3 46.95 116.65 44.6 115.95 43.4 113.8 37.85 103.7 38.95 98.65"/>
    <path stroke="none" fill="#5DD4AA" d="M33 93.5 Q31.5 91.6 31.75 89.15 32.05 86.75 33.95 85.2 35.85 83.65 38.25 83.9 40.7 84.2 42.25 86.1 45.95 90.65 51.35 92.6 53.7 93.5 54.7 95.7 55.75 97.95 54.9 100.2 54.05 102.55 51.8 103.55 L47.3 103.75 Q38.75 100.65 33 93.5"/>
    <path stroke="none" fill="url(#gradient2)" d="M97.5 88.5 Q91.75 95.65 83.2 98.75 L78.7 98.55 Q76.45 97.55 75.6 95.2 74.75 92.95 75.8 90.7 76.8 88.5 79.15 87.6 84.55 85.65 88.25 81.1 89.8 79.2 92.25 78.9 94.65 78.65 96.55 80.2 98.45 81.75 98.75 84.15 99 86.6 97.5 88.5"/>
    <path stroke="none" fill="#353541" d="M36.25 67.55 Q36.25 56.15 44.25 48.15 52.45 40 63.85 40 75.25 40 83.3 48.15 L83.3 48.2 Q91.5 56.15 91.5 67.55 91.5 79.05 83.3 87.15 75.25 95.2 63.85 95.2 52.45 95.2 44.25 87.15 36.25 79.05 36.25 67.55"/>
    <path stroke="none" fill="#5DD4AA" d="M80.4 106.6 Q73.7 113.05 63.8 113.05 53.85 113.05 47.2 106.6 40.7 100.4 43.15 92.05 L42 74.05 Q41.7 65.85 48 59.95 52.7 55.4 59.05 54.3 L63.6 53.85 Q72.85 53.85 79.25 59.95 85.45 65.85 85.25 74.05 L84.15 92.05 Q86.85 100.4 80.4 106.6"/>
    <path stroke="none" fill="#353541" fill-opacity="0.2" d="M45.5 96.4 Q45.5 95.8 45.65 95.2 L81.3 95.2 81.5 96.4 Q81.5 99.85 76.2 102.25 70.95 104.75 63.5 104.75 56 104.75 50.8 102.25 45.5 99.85 45.5 96.4"/>
    <path stroke="none" fill="url(#gradient3)" d="M39.3 43.15 Q49.5 33 63.85 33 78.15 33 88.3 43.15 98.5 53.25 98.5 67.55 98.5 82 88.3 92.15 78.15 102.2 63.85 102.2 49.5 102.2 39.3 92.15 29.2 82 29.2 67.55 29.2 53.25 39.3 43.15 M36.25 67.55 Q36.25 79.05 44.25 87.15 52.45 95.2 63.85 95.2 75.25 95.2 83.3 87.15 91.5 79.05 91.5 67.55 91.5 56.15 83.3 48.2 L83.3 48.15 Q75.25 40 63.85 40 52.45 40 44.25 48.15 36.25 56.15 36.25 67.55"/>
    <path stroke="none" fill="#7DDCBB" d="M56.75 66 Q56.75 67.65 55.55 68.8 54.4 70 52.75 70 51.1 70 49.9 68.8 48.75 67.65 48.75 66 48.75 64.35 49.9 63.15 51.1 62 52.75 62 54.4 62 55.55 63.15 56.75 64.35 56.75 66"/>
    <path stroke="none" fill="#FFFFFF" fill-opacity="0.2" d="M84 59.25 Q84 64.2 80.4 67.65 76.95 71.25 72 71.25 67.05 71.25 63.45 67.65 60 64.2 60 59.25 60 54.3 63.45 50.7 67.05 47.25 72 47.25 76.95 47.25 80.4 50.7 84 54.3 84 59.25"/>
  </g>
</svg>