<svg width="128" height="128" xmlns="http://www.w3.org/2000/svg" xmlns:xlink="http://www.w3.org/1999/xlink">
  <defs>
    <linearGradient gradientUnits="userSpaceOnUse" x1="-819.2" x2="819.2" spreadMethod="pad" gradientTransform="matrix(0.0028076171875 -0.010467529296875 -0.0158843994140625 -0.004241943359375 53.95 110.05)" id="gradient0">
      <stop offset="0" stop-color="#5DD4AA"/>
      <stop offset="1" stop-color="#4CC299"/>
    </linearGradient>
    <linearGradient gradientUnits="userSpaceOnUse" x1="-819.2" x2="819.2" spreadMethod="pad" gradientTransform="matrix(-0.0021820068359375 -0.0081329345703125 0.015869140625 -0.0042724609375 79.8 106.05)" id="gradient1">
      <stop offset="0" stop-color="#5DD4AA"/>
      <stop offset="1" stop-color="#4CC299"/>
    </linearGradient>
    <linearGradient gradientUnits="userSpaceOnUse" x1="-819.2" x2="819.2" spreadMethod="pad" gradientTransform="matrix(0.0074462890625 0.0074462890625 -0.008758544921875 0.008758544921875 36.6 89.6)" id="gradient2">
      <stop offset="0" stop-color="#5DD4AA"/>
      <stop offset="1" stop-color="#4CC299"/>
    </linearGradient>
    <linearGradient gradientUnits="userSpaceOnUse" x1="-819.2" x2="819.2" spreadMethod="pad" gradientTransform="matrix(0 0.04229736328125 -0.042236328125 0 64.15 67.6)" id="gradient3">
      <stop offset="0" stop-color="#FFFFFF"/>
      <stop offset="1" stop-color="#C4E7F3"/>
    </linearGradient>
  </defs>
  <g>
    <path stroke="none" fill="#353541" d="M64.15 29 Q80.15 29 91.55 40.35 102.8 51.6 102.8 67.55 102.8 77 98.9 84.8 99.95 86.5 100.25 88.65 L100.25 88.75 Q100.65 92.8 98.15 96 95.9 98.8 93.3 101.05 93.1 106.65 88.1 115.75 86.1 119.3 82.2 120.5 L82.15 120.5 Q78.25 121.6 74.7 119.7 L74.6 119.65 Q72.3 118.4 71.05 116.35 L64.2 117.05 60.9 116.9 60.9 117.1 Q60.9 121.3 57.9 124.15 L57.8 124.2 Q54.95 126.95 50.85 126.95 L50.7 126.95 Q46.65 126.75 43.9 124 L43.75 123.85 Q41.05 120.8 41.05 116.85 L41.05 116.8 Q41.2 110.65 42.2 106.55 39.95 103.65 38.8 100.5 32.2 97 27.4 91 L27.35 91 Q24.85 87.8 25.3 83.75 L25.3 83.65 Q25.6 81 27.1 79 25.5 73.6 25.5 67.55 25.5 51.6 36.9 40.3 L36.9 40.35 Q48.2 29 64.15 29"/>
    <path stroke="none" fill="url(#gradient0)" d="M48.8 101.55 Q53.75 93.8 63.4 100 65.45 101.3 66 103.7 66.55 106.05 65.25 108.1 63.9 110.2 61.55 110.75 59.45 111.25 57.6 110.3 57 112.7 56.9 117.1 56.9 119.6 55.1 121.25 53.35 122.95 50.85 122.95 48.4 122.85 46.7 121.15 45.05 119.3 45.05 116.85 45.3 105.35 48.8 101.55"/>
    <path stroke="none" fill="url(#gradient1)" d="M89.05 98.65 Q90.15 103.7 84.6 113.8 83.4 115.95 81.05 116.65 78.7 117.3 76.55 116.15 74.4 114.95 73.7 112.6 73 110.25 74.2 108.1 76.35 104.2 77.05 101.85 74.95 101.7 73.4 100.25 71.6 98.6 71.5 96.15 71.4 93.7 73.05 91.9 74.7 90.1 77.15 90 88.6 89.5 89.05 98.65"/>
    <path stroke="none" fill="#5DD4AA" d="M95 93.5 Q89.25 100.65 80.7 103.75 L76.2 103.55 Q73.95 102.55 73.1 100.2 72.25 97.95 73.3 95.7 74.3 93.5 76.65 92.6 82.05 90.65 85.75 86.1 87.3 84.2 89.75 83.9 92.15 83.65 94.05 85.2 95.95 86.75 96.25 89.15 96.5 91.6 95 93.5"/>
    <path stroke="none" fill="url(#gradient2)" d="M30.5 88.5 Q29 86.6 29.25 84.15 29.55 81.75 31.45 80.2 33.35 78.65 35.75 78.9 38.2 79.2 39.75 81.1 43.45 85.65 48.85 87.6 51.2 88.5 52.2 90.7 53.25 92.95 52.4 95.2 51.55 97.55 49.3 98.55 L44.8 98.75 Q36.25 95.65 30.5 88.5"/>
    <path stroke="none" fill="#353541" d="M91.75 67.55 Q91.75 79.05 83.75 87.15 75.55 95.2 64.15 95.2 52.75 95.2 44.7 87.15 36.5 79.05 36.5 67.55 36.5 56.15 44.7 48.2 L44.7 48.15 Q52.75 40 64.15 40 75.55 40 83.75 48.15 91.75 56.15 91.75 67.55"/>
    <path stroke="none" fill="#5DD4AA" d="M47.6 106.6 Q41.15 100.4 43.15 92.05 L42 74.05 Q41.7 65.85 48 59.95 52.7 55.4 59.05 54.3 L63.6 53.85 Q72.85 53.85 79.25 59.95 85.45 65.85 85.25 74.05 L84.15 92.05 Q87.3 100.4 80.8 106.6 74.15 113.05 64.2 113.05 54.3 113.05 47.6 106.6"/>
    <path stroke="none" fill="#353541" fill-opacity="0.2" d="M82.5 96.4 Q82.5 99.85 77.2 102.25 72 104.75 64.5 104.75 57.05 104.75 51.8 102.25 46.5 99.85 46.5 96.4 L46.7 95.2 82.35 95.2 82.5 96.4"/>
    <path stroke="none" fill="url(#gradient3)" d="M88.7 43.15 Q98.8 53.25 98.8 67.55 98.8 82 88.7 92.15 78.5 102.2 64.15 102.2 49.85 102.2 39.7 92.15 29.5 82 29.5 67.55 29.5 53.25 39.7 43.15 49.85 33 64.15 33 78.5 33 88.7 43.15 M91.75 67.55 Q91.75 56.15 83.75 48.15 75.55 40 64.15 40 52.75 40 44.7 48.15 L44.7 48.2 Q36.5 56.15 36.5 67.55 36.5 79.05 44.7 87.15 52.75 95.2 64.15 95.2 75.55 95.2 83.75 87.15 91.75 79.05 91.75 67.55"/>
    <path stroke="none" fill="#7DDCBB" d="M56.75 66 Q56.75 67.65 55.55 68.8 54.4 70 52.75 70 51.1 70 49.9 68.8 48.75 67.65 48.75 66 48.75 64.35 49.9 63.15 51.1 62 52.75 62 54.4 62 55.55 63.15 56.75 64.35 56.75 66"/>
    <path stroke="none" fill="#FFFFFF" fill-opacity="0.2" d="M84 59.25 Q84 64.2 80.4 67.65 76.95 71.25 72 71.25 67.05 71.25 63.45 67.65 60 64.2 60 59.25 60 54.3 63.45 50.7 67.05 47.25 72 47.25 76.95 47.25 80.4 50.7 84 54.3 84 59.25"/>
  </g>
</svg>