<?xml version="1.0" encoding="UTF-8"?>
<svg id="Layer_2" data-name="Layer 2" xmlns="http://www.w3.org/2000/svg" xmlns:xlink="http://www.w3.org/1999/xlink" viewBox="0 0 88.72 74.17">
  <defs>
    <style>
      .cls-1 {
        fill: url(#linear-gradient);
      }

      .cls-1, .cls-2 {
        stroke-width: 0px;
      }

      .cls-2 {
        fill: #231f20;
      }
    </style>
    <linearGradient id="linear-gradient" x1="0" y1="37.08" x2="88.72" y2="37.08" gradientUnits="userSpaceOnUse">
      <stop offset="0" stop-color="#943b96"/>
      <stop offset="1" stop-color="#3d52a4"/>
    </linearGradient>
  </defs>
  <g id="Layer_1-2" data-name="Layer 1">
    <g>
      <path class="cls-2" d="M29.1,38.62v20.4c0,3.46.6,5.84,1.81,7.14,1.2,1.29,3.79,1.94,7.77,1.94v6.07H0v-6.07c3.9,0,6.5-.61,7.79-1.83,1.29-1.22,1.94-3.64,1.94-7.25V15.15c0-3.5-.61-5.89-1.83-7.17-1.22-1.28-3.86-1.91-7.9-1.91V0h38.67v6.07c-3.87,0-6.43.63-7.68,1.89s-1.89,3.66-1.89,7.19v16.63h30.47V15.15c0-3.43-.59-5.8-1.78-7.11-1.19-1.31-3.73-1.97-7.63-1.97V0h38.56v6.07c-3.94,0-6.55.6-7.85,1.8-1.29,1.2-1.94,3.63-1.94,7.27v43.87c0,3.54.62,5.93,1.86,7.19,1.24,1.26,3.88,1.89,7.93,1.89v6.07h-38.56v-6.07c3.83,0,6.35-.64,7.58-1.91,1.22-1.28,1.83-3.66,1.83-7.17v-20.4h-30.47Z"/>
      <path class="cls-1" d="M29.1,38.62v20.4c0,3.46.6,5.84,1.81,7.14,1.2,1.29,3.79,1.94,7.77,1.94v6.07H0v-6.07c3.9,0,6.5-.61,7.79-1.83,1.29-1.22,1.94-3.64,1.94-7.25V15.15c0-3.5-.61-5.89-1.83-7.17-1.22-1.28-3.86-1.91-7.9-1.91V0h38.67v6.07c-3.87,0-6.43.63-7.68,1.89s-1.89,3.66-1.89,7.19v16.63h30.47V15.15c0-3.43-.59-5.8-1.78-7.11-1.19-1.31-3.73-1.97-7.63-1.97V0h38.56v6.07c-3.94,0-6.55.6-7.85,1.8-1.29,1.2-1.94,3.63-1.94,7.27v43.87c0,3.54.62,5.93,1.86,7.19,1.24,1.26,3.88,1.89,7.93,1.89v6.07h-38.56v-6.07c3.83,0,6.35-.64,7.58-1.91,1.22-1.28,1.83-3.66,1.83-7.17v-20.4h-30.47Z"/>
    </g>
  </g>
</svg>