<?xml version="1.0" encoding="UTF-8"?>
<svg id="Layer_1" data-name="Layer 1" xmlns="http://www.w3.org/2000/svg" xmlns:xlink="http://www.w3.org/1999/xlink" viewBox="0 0 500 500">
  <defs>
    <style>
      .cls-1 {
        fill: url(#linear-gradient);
        stroke-width: 0px;
      }
    </style>
    <linearGradient id="linear-gradient" x1="56.83" y1="82.34" x2="404.26" y2="429.77" gradientUnits="userSpaceOnUse">
      <stop offset="0" stop-color="#00aeef"/>
      <stop offset="1" stop-color="#6c2c8d"/>
    </linearGradient>
  </defs>
  <path class="cls-1" d="M485,159.76h0c0-49.66-40.26-89.92-89.92-89.92H106.57c-49.66,0-89.92,40.26-89.92,89.92h0c0,32.21,16.94,60.46,42.39,76.34-26.37,15.67-44.05,44.44-44.05,77.35h0c0,29.8,14.5,56.2,36.82,72.56l-20.62,3.03-14.54,41.12,99.38-26.8h277.39c49.66,0,89.92-40.26,89.92-89.92h0c0-32.21-16.94-60.46-42.39-76.34,26.37-15.67,44.05-44.44,44.05-77.35ZM405.98,305.41c0,10.45-8.48,18.93-18.93,18.93H120.79c-10.45,0-18.93-8.48-18.93-18.93h0c0-10.45,8.48-18.93,18.93-18.93h266.26c10.45,0,18.93,8.48,18.93,18.93h0ZM405.98,156.46c0,10.45-8.48,18.93-18.93,18.93h-106.33v66.26h-53.59v-66.26h-106.33c-10.45,0-18.93-8.48-18.93-18.93h0c0-10.45,8.48-18.93,18.93-18.93h266.26c10.45,0,18.93,8.48,18.93,18.93h0Z"/>
</svg>