<?xml version="1.0" encoding="UTF-8"?>
<svg id="Layer_2" data-name="Layer 2" xmlns="http://www.w3.org/2000/svg" viewBox="0 0 396.67 675.61">
  <defs>
    <style>
      .cls-1 {
        fill: #88887c;
      }

      .cls-1, .cls-2, .cls-3, .cls-4, .cls-5, .cls-6, .cls-7, .cls-8, .cls-9, .cls-10, .cls-11, .cls-12, .cls-13, .cls-14 {
        stroke-width: 0px;
      }

      .cls-2 {
        fill: #404f53;
      }

      .cls-3 {
        fill: #c29c76;
      }

      .cls-4 {
        fill: #b3b1b1;
      }

      .cls-5 {
        fill: #222916;
      }

      .cls-6 {
        fill: #d24e38;
      }

      .cls-7 {
        fill: #374322;
      }

      .cls-8 {
        fill: #9d9a96;
      }

      .cls-9 {
        fill: #89653f;
      }

      .cls-10 {
        fill: #c9c7c6;
      }

      .cls-11 {
        fill: #d8d7d7;
      }

      .cls-12 {
        fill: #767562;
      }

      .cls-13 {
        fill: #4d6331;
      }

      .cls-14 {
        fill: #e3e2de;
      }
    </style>
  </defs>
  <g id="Layer_1-2" data-name="Layer 1">
    <g>
      <path class="cls-5" d="M50.22,181.25c2.98-.19,2.74,2.81,4.12,4.2,1.52,1.54,1.74,4.35,4.55,4.65,3.96,4.44,4.01,11.49,9.83,14.7.45.5.33,1.95,1.33,1.37.71-.41.22-1.5-.48-2.1-.69-4.09-1.32-8.2-2.09-12.28-1.31-6.94-1.98-7.25-8.17-4.2.55-4.03,4.01-3.83,6.75-4.56,2.42-.64,5.11-.2,7.6-1.89-1.46-2.32-2.92-4.58-4.32-6.89-1.26-2.07-3.83-4.94-.39-6.24,2.88-1.09,6.66-3.85,9.95-.29,1.26,1.37,2.2,3.04,3.29,4.58-.86.88-1.78.2-2.67.11l-.05-.02c-.81-.5-1.63-1-2.44-1.49-1.88-1.29-4.19-3.46-6.02-1.13-1.64,2.1,1.46,3.5,2.57,5.12.94,1.38,2.18,2.56,3.28,3.83,1.63,3.04,3.51,1.19,5.22.17,3.52-2.08-.95-4.4.11-6.59,3.96,1.01,5.63,4.35,7.27,7.51,3.7,7.14,7.17,14.4,10.73,21.6,1.58-.71,2.12-1.74,1.72-3.16-2.31-8.05-1.89-16.45-3.12-24.65-1.01-6.79.45-8.93,7.19-8.72,6.76.21,7.11-2.29,5.6-7.8-7.16-25.99-10.74-52.43-9.11-79.46,1.59-26.3,9.28-50.79,21.45-74.03,2.06-3.94,4.68-4.23,8.41-2.89,12.48,4.49,22.93,12.03,32.03,21.47,12.93,13.42,23.44,28.56,31.21,45.51,2.05,4.47,3.91,6.8,9.8,4.61,13.62-5.08,27.94-7.23,42.54-7.09q7.55.07,12.54,5.17c1.85,1.89,10.74,1.08,12.84-1.2,16.81-18.29,35.99-33.72,56.95-46.98,4.48-2.83,9.19-5.34,13.94-7.7,7.62-3.8,8.12-3.54,10.29,4.53,5.06,18.82,7.1,38.02,6.8,57.46-.36,23.21-1.88,46.32-8.64,68.73-.88,2.91-.51,5.47.61,8.02,8.16,18.46,16.7,36.73,27.48,53.85,3.55,5.64,8.05,10.54,13.29,14.54,4.1,3.13,3.06,5.21-.2,7.85-4.55,3.69-10.14,4.98-16.15,6.78,3.81,4.25,8.84,3.75,13.62,5.61-4.52,7.3-10.36,12.7-17.86,16.51-15.04,7.66-31.47,11.54-47.12,17.53-10.5,4.02-21.03,7.96-31.46,14.73,7.46.95,14.13.3,20.66,1.63,9.63,1.96,10.28,2.6,7.56,12.13-2.04,7.15-4.05,14.28-4.89,21.72-.4,3.58.56,5.63,3.63,7.84,18.12,13.02,32.57,29.11,40.24,50.49,8.25,22.97,4.46,43.33-12.99,60.95-9.71,9.8-19,20.01-28.49,30.04-.29.31-.55.72-.91.89-11.56,5.36-9.32,15.1-8.33,24.84,1.91,18.84,2.68,37.76,2.75,56.72.05,12.77-3.67,24.17-10.18,34.96-7.03,11.64-1,22.3,12.86,22.81,5.58.2,11.01,1.06,16.34,2.57,15.82,4.48,25.44,19.54,23.15,35.74-.74,5.19-4.92,5.58-8.47,6.17-13.25,2.2-26.58,3.54-40.02,1.37-15.32-2.47-30.48-5.6-45.28-10.29-9.95-3.15-11.72-5.18-11.18-15.61,1-19.45.01-38.69-4.52-57.66-1.96-8.19-3.02-16.71-8.71-23.66-2.15-2.63-3.69-4-7.3-2.7-14.87,5.35-28.99,11.47-35.09,27.81-.22.59-.56,1.17-.96,1.65-17.53,21.21-18.63,46.64-18.54,72.34.05,12.83-2.6,16.78-15.4,19.02-17.59,3.08-35.18,1.72-52.67-1.39-6.54-1.16-9.3-5.1-9.52-11.51-.55-15.73,3.65-28.44,19.86-34.81,7.16-2.81,13.17-7.8,18.13-13.77,1.6-1.92,3.07-4.18,3.84-6.53,2.73-8.35,1.23-9.98-7.4-9.96-51.14.1-87.82-24.24-112.49-67.75-10.9-19.21-16.53-40.5-19.76-62.26-1.9-12.79-.19-25.47,4.54-37.6,3.79-9.73,10.74-16.35,21.26-21.37-6.16,17.71,2.42,29.26,13.48,39.83,7.4,7.08,15.93,12.58,25.34,18.14-.05-7.17-.42-12.93-8.68-14.15-3.21-.47-4.65-2.89-5.24-6.3-3.51-20.07-9.14-39.81-9.69-60.34-.09-3.28-2.16-4.21-4.48-5.4-9.69-4.94-10.54-6.71-9.66-17.52.81-9.97,1.97-19.88,4.33-29.62,3.03-12.46,8.57-23.14,20.84-29.35-11.29-11.66-22.62-23.16-33.71-34.89-7.28-7.71-8.17-17.4-7.5-27.4.14-2.13,1.5-3.52,3.1-4.6,4.75-3.22,9.56-6.33,14.37-9.47,3.47-2.26,6.21-1.96,8.37,1.99,1.68,3.08,3.36,5.12,7.05,1.19,2.01-2.13,5.64,1.71,9.28.09,3.4-1.51,4.42-2.16,2.41-5.55-6.6-11.12-10.55-23.67-18.41-34.13-1.96-2.6-1.4-4.75,1.49-6.17,2.09-1.03,4.19-2.16,6.41-2.74,1.78-.46,4.65-1.97,4.52,2.13-4.19-.09-6.72,2.94-9.99,4.6,1.23,2.49,2.61,3.99,4.62,4.84.06,2.08-.28,4.3,2.63,5.93.59-2.84,3.39-3.22,5.21-4.86,2.44-1.04,1.08-2.46.54-3.98-.8-2.27-3.35-3.72-2.98-6.49ZM36.04,269.41l.05.05c.08-.98-.6-1.18-1.35-1.31l.06.07c-.45-.49-.89-.98-1.34-1.46-1.14-2.54-2.96-2.85-5.06-1.32-1.11.81-2.66,1.9-1.09,3.56,6.78,7.14,12.5,15.31,20.35,21.42h.18s.37.26.37.26l.45-.04c5.61,9.17,12.25,17.41,21.76,22.76,2.75,1.55,6.09,1.58,9.05-.31,1.31-1.2-.02-1.91-.62-2.51-11.06-10.99-21.91-22.2-33.88-32.23l.05.06c-1.34-2.1-2.95-3.94-5.17-5.16l.05.05c-.36-1.38-1.12-2.35-2.6-2.6l.04.05c.02-.9-.38-1.4-1.33-1.34ZM204.92,560.62c.32-.31.64-.63.97-.94,0,0,.25-.27.25-.27,3.97-2.01,7.94-4.04,11.92-6.03,9.42-4.69,18.92-8.15,29.86-5.51,7.33,1.77,12.94,5.01,14.28,9.94-2.48-.29-4.11-2.11-6.07-3.3-3.57-2.17-7.38-3.13-11.54-2.76-2.52.22-3.11,1.5-1.4,3.24,9.37,9.5,13.59,22.14,20.24,33.49,2.11-1.61,3.26-3.54,4.17-5.67,2.26-2.19,3.81-5.48,7.14-6.1,4.39-.83,4.69,3.26,6.23,5.87,1.04,1.75,3,1.43,3.55-.12,2.62-7.43,5.87-3.56,9.21-.76,3.99,3.35,11.38,1.87,13.56-2.82.97-2.08,1.45-4.38,2.15-6.58,1.63-3.39,1.3-7.05,1.44-10.64.91-22.53-.77-44.96-2.95-67.36-.54-5.6-.82-11.43-6.05-15.23,6.09-10.23,1.94-21.6,3.55-32.33.1-.68-.67-1.5-1.03-2.25.06-17.63-1.32-35.15-3.57-52.62-.35-2.7-.91-4.3-4.15-4.01-5.04.45-7.67-2.41-9.13-7.02-2.89-9.18-4.6-18.48-3.78-28.14.16-.34.15-.68-.02-1.02-.24-1.06-.49-2.12-.73-3.18.09-.11.28-.31.27-.32-.17-.19-.38-.36-.57-.53l-.21-.35c1.2-1.24,3.19-2,2.67-4.31,4.29-10.25,6.03-21.09,7.58-31.99.57-4.01-.66-5.12-4.28-3.11-2.77,1.54-5.51,3.12-8.26,4.69,2.16-4.41,5.57-7.1,9.68-8.77,3.05-1.24,2.96-3.1,1.66-5.48-3.09-5.67-4.86,1.1-7.38.79l-1.25-.98c6.71-7.83,15.19-13.1,24.49-17.32,18-8.17,37.13-13.22,55.44-20.52,8.89-3.55,17.39-7.86,23.72-16.35-2.89-.85-5.47-1.6-8.06-2.36-2.74-2.16-6.32-3.41-8.01-7.38,6.97-2.5,15.38-.81,20.77-7.34-12.84-3.46-21.69-11.63-29.06-21.79.76-1.77,1.71-1.43,2.79-.28,2.32,2.46,4.49,5.1,7.02,7.31,5.44,4.76,10.6,10.13,19.38,11.26-4.68-4.92-8.67-9.13-12.67-13.34-.07-.93-.07-1.91-1.4-1.93,0,0,0,0,0,0-.21-.79-.27-1.68-.67-2.37-10.37-17.83-18.95-36.56-27.79-55.16-8.47-17.81-15.39-36.5-29.72-50.9-.92-.92-1.62-2.05-.12-3.16,2.79,2.77,5.58,5.53,8.37,8.3,2.22,4.89,4.35,4.2,6.29-.16.91-2.06,1.62-4.22,2.42-6.34,8.66-23.19,11.08-47.09,8.77-72.61-6.59,5.61-12.97,9.96-17.97,15.55-9.02,10.1-17.34,20.84-25.7,31.51-5.78,7.38-5.6,7.52,3.04,11.73,4.29,3.36,8.59,6.71,12.88,10.07.62.63,1.24,1.26,1.87,1.9-2.85,2.31-4.23-.7-5.74-1.9-7.88-6.28-16.65-10.76-26.05-14.35-10.44-3.99-21.19-6.49-32.73-7.66.76-1.24,1.02-1.8,1.4-2.25.57-.67,1.02-1.33.43-2.55-19.57-.92-38.65,1.63-56.75,9.93-19.36,5.93-35.01,17.1-47.7,32.84-13.04,16.18-22.21,34.46-30.21,53.42-9.21,21.83-16.17,45.04-38.45,59.18,8.33,1.64,14.71-.41,20.72-4.6,1.24-.86,3.55-4.78,5.02.14-8.83,7.43-19.74,8.54-32.69,9.4,8.97,6.14,15.27,12.41,24.02,15.35-3.42,1.88-7.32,1.4-11.11,3.27,31.95,16.82,66.5,28.53,94.95,51.29-4.55-1.41-8.25-5.75-14.61-2.77,8.65,4.75,15.98,9.97,22.23,16.63,6.47,6.89,10.77,15.22,16.11,23.74,3.38-6.25,6.62-2.7,9.67-.19,2.34,1.93,3.71,4.61,4.15,7.68-.41.62-.83,1.24-1.24,1.86-2.07-3.22-2.77-7.63-7.74-8.95-1.17,7.86,1.74,14.7,3.58,21.71.45,2.44-1.27,4.88-.02,7.33,5.24,10.27,3.09,20.62-.26,30.69-2.46,7.39-7.03,10.13-14.54,9.3-4.39-.48-6.24,1.1-6.76,5.1-3.86,9.13-7.77,18.24-11.55,27.41-3.3,8.01-3.23,8.03,5.03,11.88,5.89,4.46,9.67,9.95,8.63,17.77-5.93,4.64-7.63,10.96-7.2,18.12-1.26.44-1.57,1.59-1.99,2.66-2.86,1.28-4.68,3.26-5.57,6.43-.86,3.06-2.6,5.66-5.4,7.64-10.02,7.05-14.61,6.84-27.83-1.9-2.78,6.26-4.08,12.93-5.51,19.47-4.07,18.53-9.94,36.98-3.8,56.25.91,2.86,1.38,6.51,3.68,7.86,2.82,1.64,2.89-3.53,5.5-3.98.36-.06.64-.53.96-.8,5.03,4.53,9.26,3.91,13.69-1.28,2.09-2.45,3.99-.13,4.12,2.29.41,7.78,3.85,10.67,11.41,7.73.37-.14.9-.17,1.26-.02,6.39,2.62,8.26-1.97,10.68-6.32,3.48-6.26,5.41-13.51,11.37-18.23.34-.3.68-.6,1.02-.91l.33-.29c.35-.32.7-.65,1.04-.97l.33-.29ZM83.37,315.63c1.98-.17,4.04-.15,5.45-2.27-2.55-.74-4.08.74-5.69,1.98-1.39.09-2.84,0-3.89,1.19-2.16.58-4.31,1.16-7.78,2.09,4.2,1.22,6.18-.3,8.25-1.53,1.29-.3,2.76-.17,3.67-1.46ZM85.93,306.5h-.01c-.55-3.79-2.94-6.58-5.11-9.48-1.92-3.22-3.85-6.44-5.77-9.65-.69-1.93-1.04-4.07-3.16-5.12l-.02-.04c-2.23-5.06-4.46-10.12-6.7-15.19,1.65-1.07,3.62,3.6,5.85-1.86,4.62-11.29-.97-21.41-.88-32.03.02-1.95-2.11-2.91-4.27-2.59-1.92-3.16-4.95-1.98-7.3-1.32-3.83,1.08-7.6,2.09-11.61,2.26-4.78.2-4.99,2.71-2.92,6.21-3.04-1.16-4.34-3.74-5.35-6.55q-4.54-6.4-7.59-2.34c-.44.52-.88,1.03-1.32,1.55-1.2-.49-2.07-.15-2.58,1.05l-1.75,1.19c-.44.31-.88.62-1.31.93-2.89.8-6.5,2.03-6.9,4.78-1.16,8.04-2.24,16.36,3.34,23.54,1.97,2.54,3.89,3.38,6.66.53,3.16-3.25,6.85-5.99,10.3-8.94.95.19,1.89.38,2.84.57-1.16,1.22-2.21,2.58-3.51,3.65-2.72,2.24-3.35,4.04-.38,6.96,4.46,4.39,8.69,9,13.66,12.85,4.23,3.28,6.01.56,7.19-3.01.5-1.53.28-3.3.38-4.96,2.33,2.48,3.83,5.44,5.42,8.44,6.22,11.69,12.6,23.34,22.57,32.45,1.21.33,3.01.72,3.19-.6.22-1.57-.94-3.1-2.95-3.29ZM82.03,192.77l.36-.21c-1.08-4.18-1.05-9.41-7.79-8.28-3.56.36-4.26,2.5-4.09,5.75.52,10,3.62,19.49,5.48,29.23.33,1.73.65,4.62,2.98,4.08,3.09-.72,1.16-3.36.85-5.26-1.48-8.89-3.86-17.69-2.93-26.85,2.1-1.13,2.48,1.08,3.6,1.86,2.36,7.49,6.91,13.44,11.46,19.39.78-.51,1.57-1.01,2.35-1.52-3.43-5.61-6.86-11.22-10.29-16.84-.45-.76-.63-1.91-1.98-1.35ZM87.14,347.53l.07-.11c2.26-2.03,2.5-4.72,2.5-7.51-.02-6.31-.04-12.63-.06-18.94-.81-5.08-4.25-3.22-6.6-2.05-7.64,3.81-16.09,4.54-24.11,6.86-.76,1.19-1.52,2.37-2.28,3.56-.51-5.69-5.19-2.73-7.92-3.81-.45-.31-.89-.61-1.34-.92l-2.41-.22c-2.67-.76-6.38-4.21-7.48.91-2.53,11.68-5.15,23.32-5.66,35.45-.36,8.46,2.91,12.37,10.02,15.87,16.88,8.3,29.5,4.03,39.08-7.24,7.3-8.58,14.36-17.32,22.94-24.68,2.82-2.42,4.51-5.41,3.53-8.99-2.89-10.54.08-19.59,6.4-27.94,2.23-4.34,6.8-6.04,10.21-9.05,3.18-1.18,6.32-2.54,9.56-3.51,8.63-2.58,8.64-2.51,5.04-10.7q-6.91-15.7-22.34-14.69c-.73,0-1.47,0-2.2,0-.52,0-1.03,0-1.55,0-2.06,0-4.11,0-6.17-.01-2.62-.06-5.34-1.05-7.71.93-1.01.29-2.37.57-1.95,1.93,2.78,9.03,3.65,18.44,5.73,27.61-.61,4,2.16,9.9-2.66,11.53-7.13,2.41-6.46,7.21-6.3,12.51.32,10.6.39,20.85-6.35,30.34-6.83,9.61-17.28,14.5-25.55,22.13-.08-.81-.16-1.63-.24-2.44.11-1.83,1.68-2.58,2.74-3.7,9.1-4.99,17.47-10.76,22.1-20.55.32-.85.63-1.7.95-2.55ZM188.19,453.45c-1.53-1.6-3.14-3.02-5.61-2.47-2.43-2.2-5.48-2.99-8.55-3.71-9.53-2.23-19.06-4.42-29.36-6.81,2.3,5.5,4.34,9.73,5.84,14.13,3.91,11.44,1.02,20.57-8.88,27.77-2,1.46-2.03,2.23-.53,3.85,5.04,5.45,10.11,10.97,16.4,14.92,8.94,5.61,19.58-.22,20.6-10.92.12-1.22-.37-2.89,1.3-3.16,8.47-1.34,8.11-7.83,7.42-13.68-.5-4.21,2.06-4.25,4.47-5.13,4.74-4.88,3.86-8.98-3.18-14.87l.08.08ZM335.05,657.71h2.66c13.68,1.24,16.09-.69,14.85-11.92-1.19-9.95-4.33-19.21-14.44-22.98-17.81-6.65-36.01-8.21-54.15-.65-4.42,1.36-8.46,3.28-10.93,7.48-9.37-2.06-10.91-3.88-11.03-12.99-.04-2.97-.04-5.95-.18-8.92-.62-12.62-4.14-24.25-11.86-35.49-.95,5.91,1.33,10.26,2.25,14.74,3.44,16.84,2.49,33.82,2.23,50.77-.09,5.49,2.32,8,7.09,9.73,9.19,3.35,18.73,5.44,28.23,7.26,9.69,1.85,19.35,4.63,29.4,4.05,5.37.63,10.75,1.53,15.9-1.07ZM308.4,386.98c-2.54.18-5.58-.05-4.79,3.94,2.15,10.87,2.05,21.92,2.95,32.88.13,1.61.1,4.45,2.56,4.33,1.93-.1,1.68-2.6,1.98-4.22,2.63-11.3,2.11-22.68.62-34.04-.19-1.49-.06-4.45-3.33-2.9ZM138.02,670.14c.96.1,1.92.21,2.87.31,7.64,1.11,15.19.22,22.6-1.55,7.69-1.83,9.57-4.58,9.44-12.49-.07-4.21-.14-8.41-.21-12.62.78-4.38,1.83-8.57-2.45-12.2-20.04-16.99-40.01-14.1-61.68,3.16-7.14,8.28-7.12,18.08-5.97,28.12.31,3.34,2.88,4.3,5.49,5.37,3.66,1.5,5.54,1.39,4.61-3.49-.59-3.06-.18-6.3-.22-9.46.12-.43.23-.86.35-1.29.75,0,1.51-.02,2.26-.03-.22,1.99-.43,3.99-.65,5.98-.83,2.01-.69,3.92.63,5.69.49,3.06,2.6,3.93,5.37,4.22,5.85.6,11.69,1.17,17.55.27ZM52.91,195.68c-4.42.75-2.88,4.02-2.45,6.44.43,2.45,1.1,5.11,2.51,7.08,3.51,4.92,3.63,12.07,10.05,15.94v-6.96c3.04,4.48,4.82,10.17,11.71,11.61-1.56-5.98-1.67-12.63-4.87-17.07-3.81-5.31-7.73-10.45-10.76-16.28-1.57-3.03-3.71-3.92-6.19-.76ZM313.49,431.43c-5.05-1.87-6.52,1.53-5.9,5.1,1.32,7.56.94,15.14,1.52,22.64.43,5.53-1.16,10.86-.05,16.4.81,4.03,2.03,4.08,4.81,2.21,5.14-3.46,7.76-8.15,6.96-14.47.41-.69,1.19-1.39,1.17-2.07-.18-8.24-1.42-16.37-3.11-24.41-.57-2.72-2.08-5.13-5.41-5.39ZM316.21,365.39c-1.07-9.79-2.27-10.59-11.55-8.29-3.28.82-6.64,1.49-10,1.84-5.07.53-7.51,2.49-7.05,8.17.38,4.78,2.06,9.07,3.28,13.54.58,2.11,2.12,3.54,4.64,3.7,5.99.39,11.9.03,17.2-2.92,1.99-1.11,5.33-2.46,3.15-6.13,3.05-3.21.71-6.59.33-9.91ZM122.9,305.28c6.43,1.24,13.05,1.48,19.25,3.83,19.67,7.41,31.81,21.7,38.28,41.37,3.54,10.76,3.73,10.72,14.67,11.01,4.04.11,8.08-.05,12.11.15,5.36.27,6.37-2.12,4.39-6.61-1.59-4.36-2.85-8.88-4.82-13.06-7.77-16.41-16.97-31.71-33.94-40.44-4.78-2.9-10.18-4.32-15.56-4.87-12.39-1.26-24.58-.86-34.37,8.62-.41.07-.81.13-1.22.2.11.2.22.41.33.61.3-.27.59-.54.89-.81ZM293.15,355.19c4.93-.83,9.83-1.98,14.8-2.41,4.82-.41,6.17-2.69,5.13-7.04,2.09-14.99,3.29-30.14,8.01-44.67.84-2.59,1.43-5.12-2.62-5.34-6.12-1.4-12.3-2.29-18.6-1.89-1.67.1-3.89.03-1.88,2.74-.2,2.1-.44,4.2-.61,6.3-1.29,16.36-6.19,31.99-9.81,47.86-1.46,6.37.68,6.78,5.58,4.45ZM154.81,392.21c-5.42,3.28-10.72,6.79-16.29,9.79-9.97,5.36-11.3,7.94-6.43,17.96,3.4,6.99,5.59,15.5,15.03,17.38,3.51.7,7.13.83,10.6,1.65,2.85.67,4.29-.02,5.27-2.81,3.01-8.58,6.08-17.15,9.42-25.61,2.41-6.11,3.54-11.33-5.03-13.11-.74-.15-1.34-1.01-2-1.54-2.13-5.22-5.3-7.44-10.57-3.71ZM69.29,381.95c-3.36-.37-5.76,2.38-8.9,2.73-2.32-.18-4.7-.09-6.96-.58-8.93-1.94-9.31-1.66-8.43,7.53.08.84.26,1.67.41,2.5,2.41,13.28,4.91,26.55,7.18,39.85.76,4.41,3.74,6.29,7.46,6.51,6.87.4,13.78.11,21.13.11-13.9-19.76-15.91-33.88-8.57-57,.29-.92.4-2.64-.06-2.93-1.3-.81-2.15.84-3.27,1.28ZM4.35,444.46c-.15.83-.37,1.65-.45,2.49-2.21,23.42,5.59,44.78,13.92,65.95,2.85,7.25,5.62,14.7,11.39,20.39.33,1.22.35,2.67,1.04,3.63,25.85,35.97,60.39,55.21,105.29,54.46,4.43-.07,5.95-1.46,3.69-5.68-8.57-16.04-6.96-32.82-3.24-49.62,2.65-11.97,5.95-23.81,8.69-35.76,1.33-5.81-.39-7.67-6.49-7.33-10.43.59-20.3-1.6-29.78-5.68-12.63-5.45-25.16-11.14-37.74-16.72-8.47-5.67-17.33-10.85-25.33-17.13-13.22-10.37-25.15-21.87-23.79-41.32-4.03,2.45-7.02,5.02-8.96,8.69-5.61,6.88-7.11,15.19-8.25,23.63ZM139.41,94.49c-7.59,12.38-8.14,10.45,1.35,24.63,10-13.22,20.68-25.58,35.1-34.01,1.85-1.08,1.65-2.54,1.14-4.38-7.05-25.41-19.96-47.18-39.71-64.87-4.16-3.72-5.42-2.03-6.38,2.24-2.48,11-4.34,22.11-5.01,33.37-1,16.72-.25,33.27,5.33,49.47,4.25-2.1,3.24-8.08,8.1-8.91.03.82.06,1.64.08,2.47ZM318.08,338.68c-2.21,8.5-1.1,16.75,1.53,24.99,1.75,5.49,3.73,12.19-.35,16.42-4.22,4.38-3.44,8.47-3.1,13.09.27,3.59.77,7.18,1.3,10.74.58,3.91-1.93,9.59,1.17,11.33,3.25,1.82,5.59-3.98,8.66-6.03,3.47-2.3,4.87-1.67,5.87,1.82,1.22,4.21,2.29,8.46,3.55,13.14,5.42-3.19,6.3-9.11,9.73-13.8,4.52,8.25,5.35,16.62,5.43,25.44,3.33-3.94,6.91-7.23,7.54-12.33,2.45-4.35,3.46-9.13,3.82-14.01,1.78-24.46-20.46-63.12-42.39-73.83-4.17-2.04-2.71,1.22-2.78,3.02ZM90.81,440.8c.22.5.44.99.66,1.49.15-.12.31-.24.46-.36-.33-.41-.65-.83-.98-1.24.93-4.23-4.59-7.62-1.74-12.53,2.28,2.97,4.27,5.63,6.34,8.22.96,1.2,2.26,2.18,3.87,1.54,2.04-.81.79-2.52.77-3.88-.08-4.36-2.15-8.74.59-13.84,2.45,2.71,4.53,5.4,7.03,7.62,1.66,1.48,3.52,4.04,5.82,3.28,2.3-.75.95-3.81,1.59-5.75,1.15-3.44,1.6-7.89,4.02-9.83,1.48-1.18,2.91,4.46,5.52,5.95.49.28,1.08.38,1.77.62,1.45-6.42-.8-12.4-1.07-18.49-.19-4.33-2.09-5.32-5.56-2.16-.96.88-1.37,2.64-3.57,2.45,1.5-5.21,5.22-8.02,9.93-8.6,5.3-.66,1.08,5.41,4.13,7.05,8.77-4.62,16.83-10.64,26.06-14.42,3.93-1.61,8.39-5.25,10.7,2.72,1.1,3.78,6.06,5.17,9.76,4.35,3.73-.82.1-4.32.86-6.6.65-1.97.08-4.4.89-6.26,4.11-9.35,3.85-17.96-.55-27.62-6.12-13.43-11.42-26.91-24.67-35.23-3.67-2.3-6.55-2.31-10.4-.02-23.47,13.96-43.11,32.12-59.9,53.52-12.05,15.36-14.82,32.22-7.1,50.14,3.07,7.11,6.35,14.79,14.73,17.88ZM135.71,488.93c-.77-2.14-2.04-3.2-3.56-3.99-8.23-4.28-15.03-10.37-21.15-17.2-4.81-5.36-9.42-10.91-13.84-16.6-1.84-2.36-3.78-3.42-6.52-2.46-6.47,2.27-13.13,3.26-19.94,3.56-1.79.08-3.8.62-3.47,2.8.75,4.93.94,9.97,6.91,12.53,9.53,4.08,18.47,9.63,28.13,13.29,10.57,4.01,20.9,9.8,33.43,8.06ZM216.32,381.37c.03-4.35-.09-7.62-.96-10.99-.76-2.94-2.06-3.85-4.76-3.81-6.17.1-12.31-.21-18.38-1.41-3.52-.69-5.62.54-6.54,4.17-1.13,4.45-2.62,8.81-3.97,13.21-2.49,8.13-.38,13.14,7.48,16.28,3.7,1.48,7.74,2.18,11.67,3.02,6.32,1.36,10.31-2.01,12.48-7.33,1.82-4.44,3.89-9.03,2.98-13.15ZM174.17,443.54c2.27.95,3.13-.13,4-2.35,4.53-11.6,9.25-23.12,14-34.63.82-2,.65-3.48-1.59-3.79-2.61-.36-4.73-1.79-7.11-2.62-2.15-.75-4.4-.86-5.08,2.02-2.62,11.14-7,21.7-10.52,32.55-2.04,6.29-.62,8.1,6.3,8.83ZM111.38,331.16c-1.08,4.11-.02,5.79,2.34,3.92,8.83-6.95,17.92-13.47,27.58-19.22,2.54-1.51,1.17-2.73-.61-3.54-5.7-2.6-11.88-3.4-17.92-2.78-7.45.76-11.2,5.8-11.38,13.56-.07,3.17-.01,6.35-.01,8.05ZM133.43,128.34c3.94-3.43,3.83-6.2,1.41-10.32-11.13-18.94-13.83-39.79-12.34-61.33.66-9.5,1.91-18.96,2.89-28.44-12.25,34.38-7.65,67.41,8.05,100.09ZM121.16,266.98c-2.23-3.37-4.73-2.27-6.59-3.27-9.26-4.98-19.17-8.66-28.13-14.25-1.05-.65-2.3-1.66-3.5-.89-1.32.85-.4,2.23-.24,3.46.7,5.23,1.29,10.47,1.87,15.71.18,1.65-.2,3.59,2.04,4.12,1.74.41,3.45.2,4.49-1.52,2.12-3.53,5.52-3.4,8.98-3.38,6.73.06,13.47.02,21.08.02ZM355.67,47.45c-.45,9.9-.59,19.82-1.43,29.68-1.32,15.48-4.04,30.72-11.35,44.66-1.81,3.46-.48,5.34,1.43,7.84,13.5-26.35,16.04-53.78,11.35-82.18ZM104.11,192.13c3.94-3.94,5.97-8.31,7.73-12.87,3.26-8.44,3.38-8.45-4.84-11.27-3.83-1.31-6.49-.54-5.85,4.25.89,6.64,1.97,13.26,2.96,19.89ZM96.05,289.46c.25-2.45-.19-5.97-1.22-9.47-.78-2.64-1.05-6.12-4.95-4.89-3.4,1.07-5.27,4.39-3.68,7.59,1.68,3.38,1.83,6.75,2.45,10.23.5,2.81.37,7.37,4.82,6.87,4.41-.49,1.96-4.71,2.57-7.27.14-.6.02-1.26.02-3.07ZM87.58,444.56c-9.98-2.02-20,.28-29.91-1.22-.84-.13-1.8.31-1.81,1.32-.03,1.5,1.2,2.39,2.38,2.57,9.95,1.5,19.92,2.88,29.34-2.68ZM50.79,319.61c-.45-1.57-.9-3.13-1.34-4.7-.62-2.19,1.66-6.08-2.05-6.27-3.24-.16-4.17,3.62-4.94,6.46-1.44,5.3.21,6.17,8.32,4.51ZM79.88,286.67v-26.24c-1.47,3.5-.72,7.65-2.36,10.37-3.68,6.14-1.16,10.51,2.36,15.86ZM90.68,241.72c-2.79-2.03-5.21-3.95-7.81-5.6-.96-.61-2.07-2.78-3.56-.46-.92,1.43-.88,2.84.15,4.12,2.85,3.54,6.37,4.3,11.22,1.94ZM93.16,201c.82-4.41-.82-7.56-2.94-11.34-1.12,4.7-.05,8.02,2.94,11.34ZM98.07,204.61c0-1.2-.46-1.92-1.37-1.94-.39,0-1.13.77-1.1,1.14.04.47.62,1.09,1.11,1.27.37.14.95-.31,1.36-.46Z"/>
      <path class="cls-4" d="M393.31,268.15c-12.69,17.09-32.36,21.56-51.17,27.65-3.21-4.86-1.06-6.9,4.37-8.58,16.11-4.98,32.17-10.22,46.79-19.07Z"/>
      <path class="cls-1" d="M59.3,187.58c6.19-3.05,6.85-2.73,8.17,4.2.77,4.08,1.4,8.19,2.09,12.28-.28.25-.56.49-.85.73-5.81-3.2-5.87-10.26-9.82-14.7.14-.84.28-1.68.42-2.52Z"/>
      <path class="cls-8" d="M81.88,675.61c-.15-.24-.31-.47-.42-.73-.02-.05.23-.2.36-.3.07.34.09.69.06,1.03Z"/>
      <path class="cls-6" d="M378.76,210.06c3.99,4.21,7.99,8.41,12.67,13.34-8.78-1.13-13.94-6.5-19.38-11.26-2.53-2.22-4.71-4.85-7.02-7.31-1.08-1.15-2.03-1.49-2.79.27-5.17-7.99-13.27-10.8-22.04-11.88-5.63-.69-11.39-.4-17.09-.55.6-1.87,2.54-2.11,3.83-3.15,10.89-8.72,12.36-18.16,3.79-25.37-2.74-2.31-5.93-3.84-9.59-4.59-11.31-2.33-21.64-.73-30.3,7.4-2.42-3.43.63-7.38-2.24-10.93-1.62,3.91-.91,7.29-1.05,10.57-1.93-2.2-.54-5.28-2.2-8.07-1.66,3.11-1.08,5.99-.72,8.85,1.45,11.77,7.56,21.14,15.27,29.7-8.56,1.78-16.86,4.22-24.15,9.31-9.53-.45-19.06-1.32-28.62-.59-8.33-.9-16.83.02-25.02-2.38,5.91-.64,12.31-2.61,13.98-8.12,3.01-9.94-.01-27.05-12.51-33.1-16.8-8.13-35.52-3.18-47.59,15.6-.63.98-1.12,1.71.48,2.33,4.58,1.77,6.12,6.86,10.05,9.36-1.55,1.55-3.53,1.28-5.39,1.16-8.52-.54-16.98.05-25.2,2.24-9.98,2.66-19.8,5.87-26.72,14.33-6.3,4.6-11.88,10.48-20.23,11.46-1.46-4.92-3.78-1-5.02-.14-6.01,4.19-12.39,6.24-20.72,4.6,22.28-14.14,29.25-37.35,38.45-59.18,8-18.96,17.17-37.24,30.21-53.42,12.69-15.74,28.34-26.92,47.7-32.84,1.94.41,3.69-.22,5.54-.76,12.17-3.54,24.68-5.26,37.25-6.48,2.36-.23,5.44-.9,6.94,1.47,1.58,2.5-1.58,3.97-2.45,5.98-.36.09-.72.17-1.07.26.09.15.17.3.26.45.28-.23.56-.45.85-.68,10.35.3,20.67-1.13,30.97,2.29,20.19,6.71,37.22,17.31,48.79,35.62,1.27,2.01,2.97,3.83.72,6.19-7.2-4.53-14.76-8.21-23.23-9.72-2.33-.41-5.26-2.15-5.83,2.11-.45,3.4-.33,6.47,4.45,6.51,3.38.03,6.65.55,9.86,2,10.23,4.63,17.48,12.36,23.35,21.63,1.28,2.02,2.08,4.49,5.06,5.65.2-2.34.35-4.2.5-6.06,2.29,2.34,3.36,5.41,4.43,8.34,6.75,18.52,16.94,35.25,26.9,52.1.97,1.64,1.51,4.26,4.49,3.52,0,0,0,0,0,0-.19,1.12-.53,2.34,1.4,1.93ZM212.85,107.5c-5.17.77-8.99,1.96-12.7,3.61-12.64,5.62-22.17,14.47-28.28,26.91-.98,2-3.02,4.57-.56,6.21,2.3,1.53,3.4-1.6,4.83-2.98.46-.44.84-.95,1.25-1.43,10.21-12.1,22.16-20.97,38.91-20.92,1.03,0,2.09.15,2.65-1.14,1.23-2.86-4.09-10.35-6.1-10.26Z"/>
      <path class="cls-14" d="M196.81,467.17c1.03-7.82-2.75-13.31-8.63-17.77,1.64-1.59,4.35-2.4,4.69-4.95,1.42-10.89,6.87-20.33,10.65-30.36,5.27-.55,9.27-3.68,11.68-7.82,9.07-15.5,12.26-31.64,3.36-48.49,1.35-2.59,2.71-5.18,4.06-7.77,2.61-1.24,3.9-3.82,5.87-5.71,12.74-12.2,28.56-10.93,38.89,3.15-.17.94-.76,2.08-.42,2.76.46.92,1.31.24,1.8-.46.8.22,1.59.44,2.39.65,7.16,8.46,9.22,18.4,9.43,29.23.14,7.2,2.36,13.76,10.96,15.88,3.01.74,5.62,3.1,5.92,6.77.89,11.07,3.16,22.06,2.1,33.26.02,1.74.04,3.48.07,5.22-.02,1.2-.03,2.41-.05,3.61-.59,21.17-7.53,39.52-23.81,53.77-.91.79-1.42,2.04-2.11,3.08-.75.34-1.5.69-2.25,1.03l-1.42.7c-13.61,5.78-27.28,4.94-40.99.41-14.47-8.73-25.34-20.65-32.18-36.16Z"/>
      <path class="cls-9" d="M271.4,502.23c.75-.34,1.5-.69,2.25-1.03,4.88-.93,8.78-3.85,12.95-6.27,5.31-3.07,8.53-8.48,13.57-11.82-1.57,9.7,2.49,18.72,3.76,28.05,2.43,17.91,5.17,35.69,4.45,53.84-.1,2.44-.99,5.12,1.07,7.3-.7,2.2-1.19,4.5-2.15,6.58-2.18,4.69-9.56,6.17-13.56,2.82-3.34-2.8-6.59-6.67-9.21.76-.55,1.55-2.51,1.87-3.55.12-1.55-2.61-1.84-6.7-6.23-5.87-3.33.63-4.88,3.91-7.14,6.1-4.43-4.74-3.8-10.46-1.71-15.52,6.06-14.63-8.63-26.81-19.86-27.14-12.21-.36-22.41,4.21-32.2,10.17-3.2,1.95-8.29,3.45-7.7,9.08,0,0-.25.27-.25.27-.32.31-.64.63-.97.94,0,0-.33.29-.33.29-.35.32-.7.65-1.04.97,0,0-.33.29-.33.28-.34.3-.68.6-1.02.91-5.96,4.72-7.89,11.97-11.37,18.23-2.42,4.35-4.28,8.94-10.68,6.32-.36-.15-.89-.13-1.26.02-7.56,2.95-11.01.05-11.41-7.73-.13-2.42-2.03-4.73-4.12-2.29-4.43,5.19-8.66,5.81-13.69,1.28-2.54-.51-3.02-2.67-3.78-4.65-8.57-22.33,3.63-53.97,25.03-64.4,9.34-4.55,16.03-10.87,16.71-21.9.42-1.07.72-2.22,1.99-2.66,2.71,1.59,5.51,3.06,8.13,4.8,9.6,6.36,19.51,11.94,31.25,13.24,13.71,4.53,27.39,5.37,40.99-.41.47-.23.95-.47,1.42-.7Z"/>
      <path class="cls-10" d="M108.96,218.68c8.36-.98,13.93-6.86,20.24-11.46-.04,3.23.71,6.2,2.2,9.13,9.48,18.79,24.67,31.23,43.59,39.67,14.19,6.34,29.33,9.5,44.19,13.61,2.83.78,6.7.52,7.26,4.88h-10.32c2.45,1.32,4.92,1.74,7.38,2.21,12.76,2.44,24.67,7.61,36.99,11.5,7.58,2.39,14.57,2.42,20.73-3.36,3.81-.96,7.99,2.81,11.07.49,4.16-3.14,8.93-4.77,13.35-7.15,17.25-9.32,34.38-18.8,53.86-23.35,7.41-1.73,15.43-4.92,19.03-13.24,2.58.76,5.17,1.51,8.06,2.36-6.33,8.49-14.82,12.8-23.72,16.35-18.3,7.3-37.44,12.35-55.44,20.52-9.3,4.22-17.79,9.49-24.49,17.32-1,1.02-2.69,1.83-1.08,3.63,0,0-.22-.07-.22-.07l.08.17c.82-.92,1.65-1.83,2.47-2.75,2.52.31,4.29-6.47,7.38-.79,1.3,2.38,1.39,4.24-1.66,5.48-4.11,1.67-7.52,4.36-9.68,8.77,2.75-1.56,5.49-3.15,8.26-4.69,3.62-2.01,4.85-.9,4.28,3.11-1.56,10.9-3.29,21.74-7.58,31.98-2.14,1.27-3.04-.67-4.15-1.74-1.37-1.32-2.43-1.66-3.34.36-1.96,4.36-2.79.67-3.85-.59-.6-.71-1.15-1.15-2.08-.88-1.29,1.23.02,3.98-2.55,4.49-8.25-10-17.39-13.74-27.89-11.23-6.43,1.54-11.74,5.13-15.7,10.29-2.32,3.02-2.9,1.24-3.94-.62-.44-3.07-1.81-5.75-4.15-7.68-3.04-2.52-6.29-6.06-9.67.19-5.34-8.52-9.64-16.85-16.11-23.74-6.26-6.66-13.58-11.88-22.23-16.63,6.35-2.98,10.06,1.36,14.61,2.77-28.45-22.77-63-34.48-94.95-51.29,3.79-1.88,7.69-1.39,11.11-3.27-8.74-2.94-15.05-9.21-24.02-15.35,12.95-.85,23.86-1.97,32.69-9.4ZM278.64,312.54c-1.12,1.21-2.24,2.41-3.98,4.29,3.42-.16,4.33-1.62,3.98-4.29Z"/>
      <path class="cls-6" d="M70.68,470.58c12.58,5.59,25.11,11.27,37.74,16.72,9.47,4.09,19.35,6.27,29.78,5.68,6.1-.34,7.82,1.52,6.49,7.33-2.74,11.96-6.03,23.79-8.69,35.76-3.72,16.8-5.34,33.58,3.24,49.62,2.26,4.23.74,5.61-3.69,5.68-44.91.75-79.44-18.48-105.29-54.46-.69-.96-.71-2.41-1.04-3.63,3.12-.02,5.47,1.92,8.03,3.25,1.38.71,2.95,1.64,4.16.82,1.7-1.16.87-3.24.18-4.66-2.76-5.68-.07-5.65,4.21-4.26,1,.33,2.07.5,3.12.66,6.87,1.04,9.61-2.14,7.23-8.5-.47-1.25-1.08-2.31.11-3.42,4,.64,7.99,3.09,11.99,0,5.08-1.06,6.33-3.56,3.86-8.34-1.99-3.85-4.77-7.3-6.08-11.53,3.79-1.61,8.12.7,11.07-2.72,3.43-1.75,3-4.1,1.88-7.34-2.05-5.97-7.56-10.13-8.3-16.67Z"/>
      <path class="cls-6" d="M90.8,440.8c-8.37-3.09-11.66-10.77-14.73-17.88-7.72-17.91-4.95-34.77,7.1-50.14,16.79-21.4,36.42-39.55,59.9-53.52,3.85-2.29,6.73-2.29,10.4.02,13.25,8.32,18.56,21.8,24.67,35.23,4.4,9.65,4.66,18.26.55,27.62-.82,1.86-.24,4.29-.89,6.26-.75,2.28,2.88,5.78-.86,6.6-3.7.82-8.67-.57-9.76-4.35-2.32-7.98-6.77-4.33-10.7-2.72-9.24,3.78-17.29,9.79-26.06,14.42-3.05-1.64,1.17-7.7-4.13-7.05-4.71.59-8.43,3.4-9.93,8.6,2.2.19,2.61-1.57,3.57-2.45,3.47-3.16,5.37-2.17,5.56,2.16.26,6.09,2.52,12.07,1.07,18.49-.69-.23-1.28-.34-1.77-.62-2.62-1.49-4.04-7.14-5.52-5.95-2.42,1.93-2.87,6.39-4.02,9.83-.64,1.93.71,5-1.59,5.75-2.3.75-4.16-1.8-5.82-3.28-2.49-2.22-4.57-4.91-7.03-7.62-2.74,5.09-.67,9.48-.59,13.84.02,1.35,1.28,3.07-.77,3.88-1.61.64-2.91-.34-3.87-1.54-2.08-2.59-4.06-5.25-6.34-8.22-2.85,4.91,2.67,8.3,1.74,12.53l-.15.11Z"/>
      <path class="cls-14" d="M378.53,241.61c-3.6,8.32-11.62,11.51-19.03,13.24-19.49,4.55-36.61,14.02-53.86,23.35-4.42,2.39-9.19,4.01-13.35,7.15-3.08,2.32-7.26-1.45-11.07-.49,4.3-6.53,6.72-13.43,5.9-21.53-.43-4.23,3.01-7.15,6.14-9.84,3.03-2.61,2.56,3.59,3.51,1.74,3.35-6.51,8.9-3.26,13.44-3.45,12.24-.5,21.24-7.99,22.37-19.28,1.46-14.62-5.15-26.1-18.44-32.38-1.28-.6-3.65-.35-3.56-3.13,4.13-1.43,8.34-2.88,12.54-4.34,5.7.15,11.45-.14,17.09.55,8.76,1.08,16.86,3.89,22.04,11.88,7.37,10.17,16.22,18.34,29.06,21.8-5.38,6.53-13.8,4.85-20.77,7.34,1.69,3.96,5.27,5.21,8.01,7.38Z"/>
      <path class="cls-14" d="M70.68,470.58c.74,6.54,6.25,10.71,8.3,16.67,1.11,3.25,1.55,5.59-1.87,7.34-4.66,1.08-9.74-.11-14.14,2.52-7.38-1.18-14.2-3.66-20.88-7.18-15.96-8.41-24.54-22.1-29.11-38.8-2.74-10-1.09-20.19-.38-30.31,1.94-3.67,4.93-6.24,8.96-8.69-1.35,19.44,10.58,30.95,23.79,41.32,8,6.28,16.86,11.46,25.33,17.13Z"/>
      <path class="cls-6" d="M359.44,423.5c-.63,5.09-4.22,8.38-7.54,12.33-.09-8.83-.91-17.19-5.43-25.44-3.43,4.69-4.32,10.61-9.73,13.8-1.26-4.68-2.33-8.93-3.55-13.14-1.01-3.48-2.4-4.12-5.87-1.82-3.08,2.04-5.41,7.84-8.66,6.03-3.11-1.74-.59-7.42-1.17-11.33-.53-3.57-1.04-7.15-1.3-10.74-.34-4.62-1.12-8.71,3.1-13.09,4.08-4.23,2.1-10.93.35-16.42-2.62-8.25-3.74-16.49-1.53-24.99,7.45,3.26,12.13,9.66,17.34,15.42,16.51,18.26,27.06,38.74,23.72,64.34-.21,1.64.18,3.37.29,5.05Z"/>
      <path class="cls-6" d="M191.28,468.23c-2.41.88-4.96.92-4.47,5.13.69,5.86,1.04,12.34-7.42,13.68-1.68.27-1.19,1.94-1.3,3.16-1.02,10.7-11.66,16.54-20.6,10.92-6.29-3.95-11.35-9.47-16.4-14.92-1.5-1.62-1.48-2.4.53-3.85,9.9-7.2,12.79-16.32,8.88-27.77-1.51-4.41-3.55-8.63-5.84-14.13,10.3,2.39,19.84,4.59,29.36,6.81,3.07.72,6.12,1.51,8.54,3.71,1.01,2.79,3.44,2.35,5.62,2.47,0,0-.08-.08-.08-.08,1.32,4.9,3.61,9.6,3.18,14.87Z"/>
      <path class="cls-7" d="M61.58,376.78c8.27-7.63,18.72-12.52,25.55-22.13,6.74-9.49,6.67-19.73,6.35-30.34-.16-5.3-.83-10.1,6.3-12.51,4.82-1.63,2.05-7.53,2.66-11.53,2.42,4.57,5.02,8.86,11.36,7.49-6.33,8.35-9.3,17.4-6.4,27.94.98,3.58-.71,6.57-3.53,8.99-8.58,7.36-15.64,16.09-22.94,24.68-9.58,11.27-22.2,15.54-39.08,7.24-7.1-3.49-10.37-7.41-10.02-15.87.51-12.13,3.14-23.77,5.66-35.45,1.11-5.11,4.82-1.67,7.48-.91.24,3.54,3.48,2.44,5.36,3.34,2.11,1,4.48,1.36,4.72,4.39.35,4.42,1.15,8.82,1.24,13.23.2,9.33.13,18.67.05,28-.03,4.05,1.17,5.79,5.22,3.43ZM38.56,347.92c.31,3.17.96,6.06,5.05,5.87,5.54-.26,5.81-4.69,6.36-8.58.44-3.13-.75-5.45-4.45-5.4-5.4.07-6.32,3.96-6.96,8.12Z"/>
      <path class="cls-4" d="M139.33,92.02c-4.85.83-3.85,6.81-8.1,8.91-5.58-16.2-6.33-32.75-5.33-49.47.67-11.25,2.53-22.37,5.01-33.37.96-4.27,2.23-5.96,6.38-2.24,19.74,17.69,32.65,39.46,39.71,64.87.51,1.84.71,3.3-1.14,4.38-14.41,8.43-25.1,20.79-35.1,34.01-9.49-14.19-8.94-12.25-1.35-24.63,5,3.69-1.88,7.99.59,11.81,1.27.22,2.06-.59,2.69-1.4,5.8-7.37,12.31-14.02,19.78-19.72,3.06-2.33,3.01-5.21,1.71-8.55-2.01-5.14-3.39-10.55-5.67-15.55-5.07-11.09-12.15-20.85-20.91-29.36-1.72-1.67-4.15-3.85-4.45.78-.62,9.51-1.58,18.99-1.69,28.57-.06,5.54,8.12,5.59,6.13,10.53-1.61,4-5.08,7.1-4.62,12.11.57,6.32,1.28,6.91,6.64,3.8,1.03-.6,2.07-2.1,3.25-.69,1.1,1.33-.17,2.21-1.21,3.01-.83.64-1.54,1.45-2.3,2.19Z"/>
      <path class="cls-14" d="M108.58,634.76c21.67-17.26,41.64-20.15,61.68-3.16,4.28,3.63,3.23,7.82,2.45,12.2-4.01,1.03-4.12,5-5.61,7.78-5.34,9.99-14.18,14.2-24.94,11.45-.12-.41-.24-.82-.36-1.23-.16-7.24,2.96-13.31,6.83-19.12.82-.46,1.64-.93,2.46-1.39.49-.2.98-.4,1.48-.6-.11-.14-.31-.41-.33-.4-.44.26-.86.55-1.28.84-1.07,0-1.97.31-2.57,1.25-6.13,2.8-8.52,8.31-10.33,14.24l-2.32,3.66c-.42.06-.84.1-1.26.11-1.92-6.74-3.68-13.54-5.84-20.2-.71-2.19-1.3-5.07-4.59-5.29-.73.11-1.41.25-1.21,1.25l.11-.12c-1.04-.15-1.99-.21-1.38,1.34l.05-.05c-2.1-.98-2.4,1.36-3.64,1.97.45-8.9-5.77-4.05-9.4-4.55Z"/>
      <path class="cls-14" d="M139.33,92.02c.76-.73,1.47-1.54,2.3-2.19,1.05-.8,2.31-1.68,1.21-3.01-1.17-1.41-2.22.09-3.25.69-5.36,3.11-6.07,2.52-6.64-3.8-.45-5.01,3.01-8.11,4.62-12.11,1.99-4.94-6.19-4.99-6.13-10.53.11-9.57,1.06-19.05,1.69-28.57.3-4.63,2.73-2.45,4.45-.78,8.76,8.51,15.84,18.27,20.91,29.36,2.29,5,3.66,10.41,5.67,15.55,1.31,3.34,1.35,6.22-1.71,8.55-7.47,5.7-13.97,12.35-19.78,19.72-.63.8-1.42,1.62-2.69,1.4-2.46-3.82,4.41-8.12-.59-11.81-.03-.82-.06-1.64-.08-2.47Z"/>
      <path class="cls-6" d="M319.16,658.78c-10.06.58-19.72-2.19-29.41-4.05-9.51-1.82-19.04-3.91-28.23-7.26-4.76-1.73-7.17-4.24-7.09-9.73.27-16.95,1.21-33.93-2.23-50.77-.92-4.49-3.2-8.83-2.25-14.74,7.72,11.24,11.25,22.87,11.86,35.49.14,2.97.14,5.94.18,8.92.12,9.11,1.66,10.93,11.03,12.99,12.44,5.52,25.46,9.89,36.41,18.37-.01.87.3,1.46,1.27,1.51.49.31.98.63,1.47.94.29.26.57.53.86.79l.05.33.32.09c-.04.74.31,1.04,1.03.92l.45.25c.28,2.79,3.92,3.18,4.25,5.94Z"/>
      <path class="cls-12" d="M172.83,301.54c16.98,8.73,26.17,24.02,33.94,40.44,1.98,4.18,3.24,8.69,4.82,13.05-6.34,2.72-12.92,1.11-19.4,1-1.99-.03-3.22-1.91-4.1-3.68-1.42-2.86-3.19-5.6-4.16-8.61-6.34-19.79-19.38-32.95-38.93-39.77-1.22-.43-2.76-.53-2.44-2.22.29-1.58,1.88-1.61,3.12-1.5,7.04.61,14.35-1.88,21.15,2.1,1.7,1,4.17.83,5.99-.81Z"/>
      <path class="cls-10" d="M12.6,420.82c-.71,10.12-2.36,20.31.38,30.31,4.57,16.7,13.15,30.39,29.11,38.8,6.68,3.52,13.5,5.99,20.87,7.17,2.99,6.37,8.15,12.16,5.28,20.07-4,3.08-8,.63-11.99,0-3.9-2.04-7.89-3.94-11.71-6.13-21.99-12.67-34.83-31.27-36.78-56.92-.26-3.46,0-7.26-3.42-9.66,1.14-8.44,2.64-16.75,8.25-23.63Z"/>
      <path class="cls-4" d="M4.35,444.46c3.43,2.41,3.16,6.2,3.42,9.66,1.95,25.65,14.78,44.25,36.78,56.92,3.81,2.2,7.8,4.1,11.71,6.13-1.19,1.11-.58,2.17-.11,3.42,2.38,6.36-.36,9.54-7.23,8.5-1.05-.16-2.11-.33-3.12-.66-4.28-1.39-6.97-1.41-4.21,4.26.69,1.43,1.52,3.5-.18,4.66-1.2.82-2.78-.11-4.16-.82-2.56-1.33-4.91-3.27-8.03-3.25-5.77-5.69-8.54-13.14-11.39-20.39-8.33-21.18-16.14-42.53-13.92-65.95.08-.84.3-1.66.45-2.49Z"/>
      <path class="cls-10" d="M327.43,104.84c-2.79-2.77-5.58-5.53-8.37-8.3,0,0-.04-.06-.04-.06-.62-.63-1.24-1.26-1.87-1.9.42-.44.84-.89,1.25-1.33,4.34.89,7.98-2.84,12.41-1.81,1.3.3,2.02-1.57,1.35-2.12-6.43-5.28-3.65-9.7,1.03-14.08.28-.26.55-.92.41-1.16-3.87-6.78,2.46-11.4,3.56-17.12.28-1.45.41-2.94.47-4.41.13-3.37-.98-4.47-4.01-2.15-9.72,7.43-17.85,16.18-22.9,27.49-2.15,2.21-4.3,4.42-6.44,6.62-8.63-4.2-8.82-4.35-3.04-11.73,8.36-10.67,16.68-21.41,25.7-31.51,4.99-5.59,11.38-9.93,17.97-15.55,2.31,25.52-.11,49.42-8.77,72.61-2.48.43-3.18-2.67-5.57-2.81-1.1,3.09-.65,6.73-3.13,9.31Z"/>
      <path class="cls-7" d="M135.71,488.93c-12.53,1.74-22.86-4.06-33.43-8.06-9.67-3.66-18.6-9.2-28.13-13.29-5.97-2.56-6.16-7.6-6.91-12.53-.33-2.18,1.68-2.72,3.47-2.8,6.81-.3,13.48-1.29,19.94-3.56,2.73-.96,4.68.1,6.52,2.46,4.42,5.68,9.04,11.23,13.84,16.6,6.12,6.83,12.92,12.92,21.15,17.2,1.52.79,2.79,1.85,3.56,3.99Z"/>
      <path class="cls-13" d="M58.94,325.78c8.02-2.32,16.47-3.05,24.11-6.86,2.35-1.17,5.79-3.03,6.6,2.05-2.79,8.63.36,17.82-2.44,26.45,0,0-.07.11-.07.11-1.01.59-1.15,1.51-.95,2.55-4.64,9.78-13,15.56-22.1,20.55-1.62-.87-2.55-2.2-2.52-4.06.24-13.67-1.98-27.18-2.64-40.79Z"/>
      <path class="cls-14" d="M283.97,622.15c18.14-7.56,36.34-6,54.15.65,10.11,3.77,13.25,13.04,14.44,22.98-6.71,5-9.55,4.39-13.36-2.55-1.27-2.32-2.17-5.18-5.34-5.87-1.86-1.06-1.74-4.76-5.1-3.83h-.03c.03-.47.05-.93.08-1.39-.47.03-.93.05-1.4.08,0,0,.06.05.06.05,1.11-1.2-.13-1.44-.78-1.92-.5-.09-1-.18-1.5-.26.26.35.53.71.79,1.06.03.39.08.78.16,1.16-.71,1.51-1.9,3.19-.68,4.71,5.02,6.3-.53,6.7-4.38,8.1l-.13-.13c-.03-1.57-.81-2.38-2.4-2.41l-.17-.2c-.04-1.58-.86-2.35-2.44-2.33-1.12-.55-2.44-.88-3.34-1.68-8.38-7.47-16.94-14.59-28.63-16.22Z"/>
      <path class="cls-7" d="M69.29,381.95c1.13-.44,1.98-2.09,3.27-1.28.47.29.35,2,.06,2.93-7.34,23.12-5.34,37.24,8.57,57-7.35,0-14.26.28-21.13-.11-3.72-.21-6.71-2.09-7.46-6.51-2.28-13.3-4.77-26.57-7.18-39.85-.15-.83-.33-1.66-.41-2.5-.88-9.19-.5-9.47,8.43-7.53,2.25.49,4.63.4,6.95.58-.56,7.47-4.11,14.56-2.79,22.29.12.71-.32,2.09-.81,2.26-8.24,2.75-1.7,6.28-.44,9.35.77,1.9,1.98,4.27,4.57,3.47,2.2-.67,2-3.09,1.85-4.96-1.01-12.31,1.13-24.02,6.52-35.13Z"/>
      <path class="cls-7" d="M165.38,395.91c.66.53,1.26,1.39,2,1.54,8.57,1.78,7.45,7,5.03,13.11-3.34,8.46-6.41,17.03-9.42,25.61-.98,2.79-2.42,3.48-5.27,2.81-3.47-.82-7.1-.95-10.6-1.65-9.44-1.89-11.63-10.39-15.03-17.38-4.87-10.02-3.54-12.6,6.43-17.96,5.57-3,10.87-6.51,16.29-9.79-.31,1.43-.41,2.95-.97,4.27-3.97,9.35-3.57,18.92-1.53,28.56.73,3.46,2.89,5.7,6.66,5.36,3.91-.35,3.42-3.51,3.67-6.24.86-9.42,1.82-18.83,2.75-28.24Z"/>
      <path class="cls-12" d="M313.07,345.74c1.05,4.35-.31,6.63-5.13,7.04-4.96.43-9.87,1.58-14.8,2.41-.63-8.32,1.06-16.35,3.04-24.34,2.28-9.18,5.56-18.18,4.54-27.91-.26-2.43.55-5.26-2.74-6.37-2.01-2.72.21-2.64,1.88-2.74,6.3-.39,12.48.49,18.6,1.89-1,1.6-2.45,3.08-2.94,4.83-4.21,14.86-3.9,30-2.46,45.18Z"/>
      <path class="cls-3" d="M319.02,96.48s.04.07.04.06c-1.5,1.11-.8,2.24.12,3.16,14.33,14.39,21.25,33.08,29.72,50.9,8.84,18.6,17.42,37.33,27.79,55.16.4.69.45,1.57.67,2.37-2.98.74-3.52-1.88-4.49-3.52-9.96-16.85-20.14-33.58-26.9-52.1-1.07-2.92-2.14-6-4.43-8.34-1.98-9.13-7.93-15.72-14.17-22.12,2.24-2.36.55-4.18-.72-6.19-11.57-18.32-28.6-28.92-48.79-35.62-10.3-3.42-20.62-1.99-30.97-2.29l-.03-.03c.87-2.01,4.03-3.48,2.45-5.98-1.49-2.36-4.57-1.69-6.94-1.47-12.57,1.22-25.08,2.94-37.25,6.48-1.85.54-3.6,1.16-5.54.76,18.11-8.3,37.19-10.85,56.76-9.93.59,1.22.14,1.88-.43,2.55-.38.46-.64,1.02-1.4,2.25,11.54,1.17,22.28,3.67,32.73,7.66,9.41,3.59,18.17,8.07,26.05,14.35,1.5,1.2,2.88,4.2,5.74,1.9Z"/>
      <path class="cls-2" d="M187.63,487.95c-.67,11.03-7.36,17.35-16.71,21.9-21.4,10.43-33.6,42.07-25.03,64.4.76,1.98,1.23,4.14,3.78,4.65-.32.28-.61.75-.97.81-2.62.44-2.68,5.62-5.5,3.98-2.31-1.34-2.77-4.99-3.68-7.86-6.14-19.27-.28-37.72,3.8-56.25,1.44-6.54,2.73-13.21,5.51-19.47,13.22,8.74,17.81,8.96,27.83,1.9,2.8-1.97,4.55-4.58,5.4-7.64.89-3.17,2.71-5.15,5.57-6.43Z"/>
      <path class="cls-2" d="M172.83,301.54c-1.81,1.65-4.28,1.81-5.99.81-6.81-3.98-14.11-1.49-21.15-2.1-1.24-.11-2.83-.07-3.12,1.5-.32,1.7,1.22,1.8,2.44,2.22,19.54,6.82,32.58,19.98,38.93,39.77.96,3,2.74,5.75,4.16,8.61.88,1.77,2.11,3.65,4.1,3.68,6.48.11,13.06,1.72,19.4-1,1.99,4.49.98,6.88-4.38,6.61-4.03-.2-8.07-.05-12.11-.15-10.94-.29-11.13-.25-14.67-11.01-6.47-19.67-18.62-33.96-38.28-41.37-6.21-2.34-12.83-2.59-19.25-3.83h0c9.79-9.47,21.98-9.87,34.37-8.61,5.39.55,10.78,1.97,15.56,4.87Z"/>
      <path class="cls-2" d="M206.14,559.41c-.59-5.64,4.5-7.13,7.7-9.08,9.79-5.96,19.99-10.53,32.2-10.17,11.23.33,25.92,12.51,19.86,27.14-2.09,5.05-2.73,10.78,1.71,15.52-.9,2.12-2.06,4.06-4.17,5.67-6.65-11.35-10.86-23.98-20.24-33.49-1.72-1.74-1.12-3.01,1.4-3.24,4.16-.37,7.97.59,11.54,2.76,1.95,1.19,3.59,3.01,6.07,3.3-1.35-4.94-6.95-8.17-14.28-9.94-10.94-2.64-20.44.82-29.86,5.51-3.98,1.99-7.95,4.02-11.92,6.03Z"/>
      <path class="cls-6" d="M216.32,381.37c.91,4.12-1.16,8.71-2.98,13.15-2.18,5.32-6.16,8.68-12.48,7.33-3.93-.84-7.97-1.54-11.67-3.02-7.86-3.14-9.97-8.15-7.48-16.28,1.35-4.4,2.84-8.76,3.97-13.21.92-3.63,3.02-4.87,6.54-4.17,6.07,1.2,12.21,1.51,18.38,1.41,2.7-.04,4,.87,4.76,3.81.87,3.37,1,6.64.96,10.99ZM202.03,393.24c3.51.95,5.02-1.4,6.05-4.05.83-2.14,1.04-4.52,1.84-6.68,1.28-3.48.34-5.2-3.46-5.43-4.83-.3-9.73-.21-14.36-1.87-2.16-.77-3.09.33-3.87,2.03-3.85,8.4-1.87,12.55,7.01,14.57,2.26.51,4.53.96,6.79,1.43Z"/>
      <path class="cls-13" d="M113.81,307.76c-6.34,1.38-8.94-2.92-11.36-7.49-2.08-9.16-2.95-18.58-5.73-27.61-.42-1.36.93-1.64,1.95-1.93,2.6-.06,5.31.74,7.71-.93,2.06,0,4.11,0,6.17,0,.51.52,1.03.52,1.55,0,.73,0,1.47,0,2.2,0,4.04,9.24,7.32,18.69,7.73,28.9-3.41,3.01-7.98,4.71-10.21,9.05Z"/>
      <path class="cls-4" d="M299.55,435.53c1.06-11.2-1.22-22.18-2.1-33.26-.29-3.67-2.91-6.03-5.92-6.77-8.6-2.11-10.82-8.67-10.96-15.88-.21-10.84-2.27-20.78-9.43-29.23.12-1.77.06-3.63,2.01-4.64,1.32,1.58,1,4.13,2.9,4.92,2.93-.18,1-8.38,6.47-3.36,0,0,.21.35.21.35-.11.36-.01.64.3.85.24,1.06.49,2.12.73,3.18-.34.34-.34.68.02,1.02-.82,9.66.89,18.96,3.78,28.14,1.45,4.61,4.08,7.47,9.13,7.02,3.24-.29,3.8,1.31,4.15,4.01,2.25,17.47,3.63,35,3.57,52.63-1.61-.05-3.22-.09-4.83-.14.02-1.2.03-2.41.04-3.61,2.53-1.77,2.59-3.51-.06-5.22Z"/>
      <path class="cls-6" d="M174.17,443.54c-6.93-.72-8.35-2.53-6.3-8.83,3.52-10.84,7.9-21.41,10.52-32.55.68-2.89,2.93-2.78,5.08-2.02,2.38.83,4.5,2.26,7.11,2.62,2.24.31,2.41,1.79,1.59,3.79-4.74,11.51-9.47,23.03-14,34.63-.87,2.22-1.72,3.31-4,2.35Z"/>
      <path class="cls-10" d="M283.97,622.15c11.69,1.63,20.25,8.75,28.63,16.22.9.8,2.22,1.13,3.34,1.68.81.78,1.63,1.55,2.44,2.33,0,0,.17.2.17.2.03,1.57.84,2.36,2.4,2.41,0,0,.13.13.13.13.02,1.27.05,2.53.07,3.8-1.91,1.58-3.31,3.97-6.24,3.93,0,0-.45-.25-.45-.25-.34-.31-.69-.62-1.03-.92l-.32-.09s-.05-.33-.04-.33c-.29-.26-.58-.53-.86-.8-.49-.31-.98-.63-1.47-.94-.01-.85-.26-1.5-1.27-1.51-10.95-8.48-23.97-12.86-36.41-18.37,2.47-4.2,6.51-6.12,10.93-7.48Z"/>
      <path class="cls-10" d="M299.57,444.36c1.61.05,3.22.09,4.83.14.36.75,1.14,1.57,1.03,2.25-1.61,10.73,2.54,22.1-3.55,32.33-1.62.9-1.48,2.55-1.72,4.04-5.04,3.34-8.25,8.75-13.57,11.82-4.17,2.41-8.07,5.33-12.95,6.27.7-1.04,1.21-2.28,2.12-3.08,16.28-14.25,23.22-32.6,23.81-53.77Z"/>
      <path class="cls-7" d="M111.38,331.16c0-1.7-.06-4.88.01-8.05.18-7.76,3.93-12.8,11.38-13.56,6.04-.62,12.22.18,17.92,2.78,1.78.81,3.15,2.02.61,3.54-9.65,5.75-18.75,12.27-27.58,19.22-2.36,1.86-3.42.19-2.34-3.92Z"/>
      <path class="cls-2" d="M165.38,395.91c-.92,9.41-1.89,18.82-2.75,28.24-.25,2.73.24,5.89-3.67,6.24-3.77.34-5.93-1.89-6.66-5.36-2.04-9.64-2.44-19.21,1.53-28.56.56-1.32.66-2.84.97-4.27,5.27-3.73,8.44-1.51,10.57,3.71Z"/>
      <path class="cls-6" d="M315.88,375.31c2.18,3.67-1.16,5.02-3.15,6.13-5.3,2.95-11.22,3.3-17.2,2.92-2.52-.16-4.06-1.59-4.64-3.7-1.22-4.47-2.9-8.76-3.28-13.54-.46-5.68,1.99-7.64,7.05-8.17,3.36-.35,6.71-1.02,10-1.84,9.28-2.31,10.48-1.5,11.55,8.28-.56,1.27-1.12,2.55-1.67,3.82-2.04-1.19.67-5.96-3.94-5.21-2.45.18-4.91.36-7.36.54-2.29.37-4.59.73-6.88,1.13-.96.17-1.94.01-2.16,1.59-.71,5.18,3.03,9.36,8.7,9.49,4.58,1.78,8.79.24,12.99-1.44Z"/>
      <path class="cls-7" d="M124.02,298.71c-.41-10.21-3.69-19.66-7.73-28.9q15.42-1.01,22.33,14.69c3.6,8.19,3.58,8.12-5.04,10.7-3.25.97-6.38,2.33-9.56,3.51Z"/>
      <path class="cls-6" d="M37.52,253.42c-3.46,2.96-7.15,5.7-10.31,8.95-2.76,2.85-4.68,2.01-6.66-.53-5.57-7.18-4.5-15.51-3.34-23.54.4-2.75,4.01-3.97,6.89-4.77.63,4.47.91,9.05,4.08,12.7,1.51,1.65.79,6.25,4.11,4.97,3.42-1.33-.84-3.93-.58-6.12.05-.44-.68-.98-1.04-1.47-.23-4-4.23-6.79-3.59-11.07,4.24,2.14,5.94,6.43,7.46,10.28,1.94,4.9,4.07,4.44,7.28,1.73,2.03,4.63-3.42,5.65-4.3,8.87Z"/>
      <path class="cls-9" d="M133.43,128.34c-15.69-32.68-20.29-65.7-8.05-100.09-.98,9.48-2.23,18.94-2.89,28.44-1.49,21.54,1.21,42.38,12.34,61.33,2.42,4.12,2.54,6.88-1.41,10.32Z"/>
      <path class="cls-6" d="M320.83,463.3c.8,6.32-1.82,11.01-6.96,14.47-2.78,1.87-4,1.83-4.81-2.21-1.11-5.53.48-10.87.05-16.4-.58-7.5-.2-15.08-1.52-22.64-.62-3.57.85-6.97,5.9-5.1-.64.33-2.18.73-1.51,1.28,5.36,4.39,4.48,10.35,5.07,16.26.48,4.81-1.22,10.59,3.78,14.34Z"/>
      <path class="cls-6" d="M44.03,237.7c-2.08-3.5-1.87-6.01,2.91-6.21,4-.17,7.77-1.18,11.61-2.26,2.35-.66,5.38-1.84,7.3,1.31-1.15,2.85,3.82,4.53,1.57,7.44-1.83,2.38-.62,4.2-.26,6.69.97,6.53,3.28,13.52-1.17,19.85-2.63-5.66-5.46-11.25-7.84-17.01-2.04-4.96-5.2-7.36-10.63-6.15l.02.03c.64-2.33-1.09-2.67-2.65-3.16-.18-.36-.47-.54-.87-.54Z"/>
      <path class="cls-3" d="M300.16,483.12c.24-1.49.1-3.14,1.72-4.04,5.22,3.8,5.5,9.64,6.05,15.23,2.18,22.4,3.86,44.82,2.95,67.36-.14,3.59.19,7.25-1.44,10.64-2.07-2.17-1.17-4.86-1.07-7.3.73-18.14-2.01-35.93-4.45-53.84-1.27-9.33-5.33-18.35-3.76-28.05Z"/>
      <path class="cls-7" d="M121.16,266.98c-7.61,0-14.34.04-21.08-.02-3.46-.03-6.87-.15-8.98,3.38-1.03,1.72-2.74,1.93-4.49,1.52-2.24-.53-1.86-2.47-2.04-4.12-.58-5.24-1.17-10.48-1.87-15.71-.16-1.22-1.08-2.61.24-3.46,1.2-.77,2.45.23,3.5.89,8.95,5.59,18.87,9.28,28.13,14.25,1.86,1,4.37-.11,6.59,3.27Z"/>
      <path class="cls-10" d="M203.52,414.09c-3.78,10.04-9.23,19.48-10.65,30.36-.33,2.55-3.05,3.36-4.69,4.95-8.26-3.84-8.33-3.87-5.03-11.88,3.78-9.17,7.7-18.28,11.55-27.41,1.54,1.99,3.33,3.09,5.94,1.95,1.97-.87,2.62.36,2.88,2.03Z"/>
      <path class="cls-10" d="M228.99,503.34c-11.74-1.3-21.65-6.88-31.25-13.24-2.62-1.74-5.41-3.2-8.13-4.8-.43-7.17,1.27-13.49,7.2-18.12,6.83,15.51,17.71,27.43,32.17,36.16Z"/>
      <path class="cls-6" d="M57.7,269.49c-.11,1.66.12,3.43-.38,4.96-1.18,3.56-2.96,6.28-7.19,3.01-4.97-3.85-9.2-8.46-13.66-12.85-2.97-2.92-2.34-4.71.38-6.96,1.29-1.07,2.35-2.42,3.5-3.64,2.29-1.64,4.59-3.28,6.88-4.93.45.94.36,2.21,1.62,2.67.1,1.13.39,2.16,1.49,2.74,2.37,3.18.64,8.24,4.85,10.58-.01,1.99-1.03,4.53,2.54,4.5l-.03-.08Z"/>
      <path class="cls-3" d="M359.44,423.5c-.11-1.69-.51-3.41-.29-5.05,3.34-25.6-7.22-46.09-23.72-64.34-5.21-5.76-9.89-12.16-17.34-15.42.07-1.8-1.4-5.06,2.78-3.02,21.94,10.7,44.18,49.36,42.39,73.83-.36,4.88-1.37,9.66-3.82,14.01Z"/>
      <path class="cls-4" d="M203.52,414.09c-.26-1.68-.9-2.9-2.88-2.03-2.61,1.15-4.4.05-5.94-1.95.52-4,2.37-5.58,6.76-5.1,7.51.83,12.09-1.9,14.54-9.3,3.34-10.07,5.49-20.43.26-30.69-1.25-2.45.47-4.88.02-7.33.76.03,1.51.06,2.27.09,8.91,16.85,5.72,32.99-3.35,48.49-2.42,4.13-6.41,7.27-11.68,7.82Z"/>
      <path class="cls-11" d="M124.05,634.91c3.28.23,3.88,3.11,4.59,5.29,2.17,6.66,3.92,13.45,5.84,20.2-1.77,3.03-4.49,2.7-7.3,2.04-3.91-.91-7.72-2.42-11.85-2.02-.21-.31-.5-.47-.88-.46.22-1.99.43-3.99.65-5.98,1.62-5.76,3.95-11.25,6.52-16.65l-.05.05c.99.1,1.47-.33,1.38-1.34,0,0-.11.12-.11.12.4-.42.81-.83,1.21-1.25Z"/>
      <path class="cls-4" d="M142.16,663.03c10.76,2.74,19.6-1.46,24.94-11.45,1.49-2.78,1.6-6.75,5.61-7.78.07,4.21.14,8.41.21,12.62.13,7.92-1.75,10.66-9.44,12.49-7.41,1.77-14.96,2.65-22.6,1.55-.3-2.6.61-4.99,1.28-7.43Z"/>
      <path class="cls-7" d="M282.52,347.31c-5.47-5.02-3.54,3.18-6.47,3.36-1.9-.78-1.58-3.33-2.9-4.92-1.95,1.01-1.88,2.86-2.01,4.64-.8-.22-1.6-.43-2.39-.65-.03-1.02-.33-1.88-1.38-2.3-10.33-14.08-26.14-15.35-38.89-3.15-1.97,1.89-3.27,4.48-5.87,5.71-.72-1.69-1.45-3.38-2.17-5.07.41-.62.83-1.24,1.24-1.86,1.04,1.87,1.62,3.65,3.94.63,3.96-5.16,9.27-8.76,15.7-10.29,10.5-2.51,19.65,1.23,27.89,11.23,2.57-.51,1.26-3.26,2.55-4.49.93-.27,1.49.16,2.08.88,1.05,1.26,1.88,4.95,3.85.59.91-2.01,1.96-1.68,3.34-.36,1.11,1.07,2.01,3.01,4.15,1.74.51,2.31-1.48,3.07-2.68,4.31Z"/>
      <path class="cls-9" d="M355.67,47.45c4.69,28.4,2.15,55.83-11.35,82.18-1.91-2.5-3.24-4.38-1.43-7.84,7.3-13.95,10.03-29.19,11.35-44.66.84-9.86.98-19.78,1.43-29.68Z"/>
      <path class="cls-9" d="M55.19,265.07c-4.21-2.34-2.48-7.4-4.85-10.58,1.28-1.81,1.46-3.62-.02-5.42.31-.57.62-1.13.92-1.7,3.42,6.51,6.54,13.21,10.35,19.48,3.19,5.25,4.73,11.67,10.27,15.36,0,0,.02.04.02.04-.67,2.77.12,4.64,3.16,5.12,1.92,3.22,3.85,6.44,5.77,9.65.11,4.02,1.88,7.14,5.11,9.47,0,0,.01.01.01.01-.08,1.29-.16,2.59-.24,3.88-9.97-9.11-16.35-20.76-22.57-32.45-1.6-3-3.09-5.96-5.42-8.44,0,0,.03.08.03.08-.85-1.5-1.69-3-2.54-4.5Z"/>
      <path class="cls-13" d="M69.29,381.95c-5.39,11.12-7.53,22.82-6.52,35.13.15,1.87.35,4.29-1.85,4.96-2.6.79-3.8-1.58-4.57-3.47-1.25-3.07-7.8-6.6.44-9.35.49-.16.93-1.54.81-2.26-1.32-7.73,2.23-14.82,2.79-22.29,3.14-.35,5.54-3.1,8.9-2.73Z"/>
      <path class="cls-10" d="M108.58,634.76c3.63.5,9.85-4.35,9.4,4.55-2.18,4.74-4.92,9.28-5.14,14.7-.12.43-.23.86-.35,1.29-.61,1.31-1.21,2.62-1.85,4-1.7-1.49-3.23-4-5.69-3.12-2.11.76-.65,3.45-1.32,5.15-.22.56-.67,1.03-1.02,1.55-1.15-10.04-1.17-19.84,5.97-28.12Z"/>
      <path class="cls-10" d="M52.91,195.68c2.48-3.16,4.61-2.27,6.19.76,3.03,5.83,6.94,10.97,10.76,16.28,3.19,4.44,3.31,11.09,4.87,17.07-6.88-1.44-8.67-7.14-11.71-11.61,0,0,.03.18.03.18-.14-.41-.27-.81-.41-1.22-2.26-4.69-4.52-9.38-6.77-14.07-.6-.91-.13-2.56-1.87-2.68l.07.13c.64-1.86-.02-3.32-1.41-4.55l.24-.3Z"/>
      <path class="cls-2" d="M297.98,296.58c3.29,1.11,2.48,3.94,2.74,6.37,1.02,9.72-2.26,18.72-4.54,27.91-1.98,7.98-3.67,16.02-3.04,24.34-4.9,2.33-7.04,1.92-5.58-4.45,3.62-15.88,8.53-31.5,9.81-47.86.17-2.1.4-4.2.61-6.3Z"/>
      <path class="cls-13" d="M104.11,192.13c-1-6.63-2.07-13.25-2.96-19.89-.64-4.79,2.02-5.57,5.85-4.25,8.23,2.82,8.11,2.83,4.84,11.27-1.76,4.56-3.79,8.93-7.73,12.87Z"/>
      <path class="cls-12" d="M79.48,313.09c-2.96,1.89-6.3,1.86-9.05.31-9.51-5.35-16.16-13.6-21.76-22.76,1.94-2.67,4.12-2.68,6.33-.43,2.65,2.7,5.01,5.71,7.82,8.23,5.51,4.93,8.76,12.45,16.66,14.66Z"/>
      <path class="cls-8" d="M313.07,345.74c-1.44-15.19-1.76-30.32,2.46-45.18.5-1.75,1.94-3.23,2.94-4.83,4.05.23,3.46,2.75,2.62,5.34-4.72,14.52-5.93,29.67-8.01,44.67Z"/>
      <path class="cls-4" d="M115.33,660.42c4.13-.39,7.94,1.11,11.85,2.02,2.81.66,5.52.99,7.3-2.04.42,0,.84-.05,1.26-.11.76,0,1.51-.01,2.27-.02,0,3.29.01,6.58.02,9.86-5.87.9-11.7.33-17.55-.27-2.77-.29-4.88-1.16-5.37-4.22.08-1.74.16-3.48.24-5.22Z"/>
      <path class="cls-7" d="M96.05,289.46c0,1.8.12,2.47-.02,3.07-.61,2.56,1.85,6.79-2.57,7.27-4.45.49-4.32-4.07-4.82-6.87-.62-3.48-.77-6.86-2.45-10.23-1.59-3.2.29-6.52,3.68-7.59,3.9-1.23,4.17,2.25,4.95,4.89,1.03,3.49,1.46,7.02,1.22,9.47Z"/>
      <path class="cls-12" d="M76.88,191.23c-.93,9.16,1.45,17.95,2.93,26.85.32,1.9,2.25,4.54-.85,5.26-2.33.54-2.65-2.35-2.98-4.08-1.86-9.73-4.96-19.23-5.48-29.23-.17-3.25.53-5.38,4.09-5.75,3,1.58,2.58,4.29,2.29,6.95Z"/>
      <path class="cls-6" d="M311.1,423.92c-.31,1.62-.05,4.12-1.98,4.22-2.46.12-2.42-2.72-2.56-4.33-.91-10.97-.8-22.02-2.95-32.88-.79-3.99,2.25-3.76,4.79-3.94-1.12,12.46,2.92,24.54,2.71,36.94Z"/>
      <path class="cls-4" d="M333.87,637.36c3.17.69,4.07,3.54,5.34,5.87,3.81,6.95,6.65,7.56,13.36,2.55,1.24,11.23-1.17,13.17-14.85,11.91.79-7.17-1.97-13.67-3.85-20.33Z"/>
      <path class="cls-9" d="M66,264.52c4.45-6.34,2.14-13.33,1.17-19.85-.37-2.49-1.58-4.31.26-6.69,2.25-2.92-2.73-4.59-1.57-7.44,2.17-.31,4.29.66,4.27,2.6-.1,10.62,5.49,20.73.88,32.03-2.23,5.46-4.2.79-5.85,1.86,0,0,.15,0,.15,0,.23-.83.46-1.67.69-2.5Z"/>
      <path class="cls-4" d="M314.91,652.85c2.94.05,4.33-2.34,6.24-3.93,4.43-.63,8.87,1.53,13.29-.11.96,2.91.64,5.91.61,8.89-5.15,2.6-10.53,1.7-15.9,1.07-.33-2.76-3.97-3.14-4.25-5.94Z"/>
      <path class="cls-13" d="M61.58,376.78c-4.05,2.36-5.25.63-5.22-3.43.08-9.33.15-18.67-.05-28-.1-4.42-.9-8.82-1.24-13.23-.24-3.03-2.61-3.39-4.72-4.39-1.88-.89-5.12.2-5.36-3.34.81.07,1.61.14,2.42.21.45.31.89.61,1.34.92,2.73,1.09,7.41-1.88,7.92,3.82,1.08,7.7,2.09,15.39,2.43,23.19.32,7.29,1.47,14.54,2.26,21.81.08.81.16,1.63.24,2.44Z"/>
      <path class="cls-1" d="M47.68,290.42c-7.86-6.12-13.57-14.28-20.36-21.43-1.57-1.66-.02-2.75,1.09-3.56,2.09-1.53,3.92-1.23,5.05,1.32.08.82.43,1.4,1.34,1.46,0,0-.06-.07-.06-.07.02.88.44,1.35,1.35,1.31,0,0-.05-.05-.05-.05.02.86.46,1.31,1.33,1.34,0,0-.04-.05-.04-.05-.08,1.81.81,2.66,2.6,2.6,0,0-.05-.05-.05-.05.12,3.32,2.03,4.86,5.17,5.16l-.05-.06c-.81,3.81,4.11,6.19,2.56,10.19.04.63.09,1.25.13,1.88Z"/>
      <path class="cls-4" d="M47.55,288.54c1.55-4-3.37-6.37-2.56-10.19,11.97,10.03,22.82,21.24,33.88,32.23.6.6,1.93,1.31.62,2.51-7.9-2.21-11.15-9.72-16.66-14.66-2.81-2.52-5.17-5.53-7.82-8.23-2.21-2.25-4.39-2.24-6.33.43,0,0-.45.04-.45.04,0,0-.37-.26-.36-.26.74-.77.38-1.35-.31-1.88Z"/>
      <path class="cls-7" d="M87.58,444.56c-9.41,5.56-19.39,4.17-29.34,2.68-1.19-.18-2.41-1.07-2.38-2.57.02-1.01.98-1.45,1.81-1.32,9.91,1.5,19.93-.8,29.91,1.22Z"/>
      <path class="cls-9" d="M47.23,249.08c-2.3,1.64-4.59,3.29-6.88,4.93-.94-.19-1.89-.38-2.83-.58.89-3.23,6.34-4.24,4.31-8.87-4.02-4.73-8.05-9.47-12.08-14.2.44-.52.88-1.03,1.32-1.55,2.67.34,3.67,6.08,7.6,2.34,1.02,2.81,2.31,5.39,5.36,6.55.4,0,.69.18.87.54-.06,1.84.34,3.29,2.65,3.16l-.02-.03c0,.88.02,1.75.03,2.63-1.74,1.59-.18,3.4-.33,5.09Z"/>
      <path class="cls-2" d="M52.91,195.68s-.24.3-.24.3c-.08,1.69-.34,3.43,1.41,4.55,0,0-.07-.13-.07-.13-.14,1.43.57,2.26,1.87,2.68,2.26,4.69,4.52,9.38,6.77,14.07-.94.76-.44,1.05.41,1.22,0,0-.03-.18-.03-.18,0,2.06,0,4.12,0,6.96-6.42-3.87-6.53-11.02-10.05-15.94-1.41-1.97-2.08-4.63-2.51-7.08-.43-2.42-1.97-5.69,2.45-6.44Z"/>
      <path class="cls-10" d="M220.45,344.94c.72,1.69,1.45,3.38,2.17,5.07-1.35,2.59-2.7,5.18-4.06,7.77-.76-.03-1.51-.06-2.27-.09-1.84-7.01-4.75-13.85-3.58-21.7,4.98,1.32,5.67,5.73,7.74,8.95Z"/>
      <path class="cls-3" d="M311.1,423.92c.21-12.39-3.83-24.48-2.71-36.94,3.27-1.55,3.13,1.4,3.33,2.9,1.48,11.37,2.01,22.74-.62,34.04Z"/>
      <path class="cls-11" d="M304.28,84.51c2.15-2.21,4.3-4.42,6.44-6.62.97.96,1.89.3,2.85-.05,1.3-.48,2.78-1.9,3.96-.42,1.28,1.61-.53,2.72-1.53,3.51-2.85,2.25-2.27,4.38-.43,6.93,1.18,1.63,1.91,3.59,2.84,5.4-.42.44-.84.89-1.25,1.33-4.29-3.36-8.59-6.71-12.88-10.07Z"/>
      <path class="cls-3" d="M320.83,463.3c-5.01-3.74-3.3-9.53-3.78-14.34-.59-5.91.29-11.87-5.07-16.26-.67-.55.87-.95,1.51-1.28,3.33.27,4.84,2.68,5.41,5.39,1.69,8.04,2.93,16.17,3.11,24.41.01.68-.76,1.38-1.17,2.07Z"/>
      <path class="cls-3" d="M71.85,282.21c-5.54-3.69-7.08-10.11-10.27-15.36-3.81-6.27-6.93-12.97-10.35-19.48,0,0-.03-.52-.03-.52,3.31-1.13,3.85,1.73,5.05,3.56,3.47,5.29,4.96,11.66,9.05,16.61,0,0-.15,0-.15,0,2.23,5.06,4.46,10.12,6.7,15.19Z"/>
      <path class="cls-8" d="M102.62,662.88c.35-.51.8-.98,1.02-1.55.67-1.7-.79-4.39,1.32-5.15,2.46-.89,4,1.63,5.69,3.12.64-1.38,1.24-2.69,1.85-4,.04,3.16-.37,6.41.22,9.46.94,4.89-.95,5-4.61,3.49-2.6-1.07-5.18-2.03-5.49-5.37Z"/>
      <path class="cls-6" d="M50.8,319.61c-8.12,1.66-9.76.79-8.32-4.51.77-2.83,1.7-6.62,4.94-6.46,3.71.18,1.43,4.08,2.05,6.27.44,1.57.89,3.13,1.34,4.7Z"/>
      <path class="cls-9" d="M79.88,286.67c-3.51-5.36-6.04-9.72-2.36-15.86,1.63-2.72.88-6.87,2.36-10.37v26.24Z"/>
      <path class="cls-7" d="M61.35,374.33c-.79-7.27-1.94-14.52-2.26-21.81-.34-7.8-1.34-15.49-2.43-23.19.76-1.19,1.52-2.37,2.28-3.56.66,13.61,2.88,27.12,2.64,40.79-.03,1.86.89,3.19,2.52,4.06-1.07,1.12-2.64,1.87-2.74,3.71Z"/>
      <path class="cls-8" d="M50.22,181.25c-.36,2.78,2.18,4.23,2.98,6.49.54,1.52,1.9,2.95-.54,3.98-2.83,1.2-4.69-4.63-7.84-1.07-2.02-.86-3.39-2.35-4.62-4.84,3.27-1.65,5.8-4.69,9.99-4.6,0,0,.03.03.03.03Z"/>
      <path class="cls-3" d="M29.75,230.35c4.03,4.74,8.05,9.47,12.08,14.2-3.21,2.7-5.34,3.17-7.29-1.74-1.53-3.85-3.22-8.14-7.46-10.28,0,0-.08-.08-.08-.08.22-.32.28-.67.17-1.04.51-1.2,1.37-1.55,2.58-1.05Z"/>
      <path class="cls-1" d="M84.01,194.13c3.43,5.61,6.86,11.22,10.29,16.84-.78.51-1.57,1.01-2.35,1.52-4.55-5.95-9.1-11.9-11.46-19.39.63-.18,1.27-.35,1.9-.53,0,0-.36.21-.36.21.66.45,1.32.9,1.98,1.35Z"/>
      <path class="cls-9" d="M335.05,657.71c.03-2.98.35-5.98-.61-8.89-.32-5.68-3.61-10.25-5.67-15.28,3.36-.93,3.24,2.77,5.1,3.83,1.88,6.67,4.63,13.17,3.85,20.33-.89,0-1.77,0-2.66.01Z"/>
      <path class="cls-3" d="M327.43,104.84c2.48-2.58,2.03-6.22,3.13-9.31,2.39.14,3.09,3.23,5.57,2.81-.8,2.12-1.5,4.27-2.42,6.34-1.93,4.36-4.06,5.06-6.29.16Z"/>
      <path class="cls-2" d="M90.68,241.72c-4.86,2.35-8.37,1.59-11.22-1.94-1.03-1.28-1.06-2.69-.15-4.12,1.49-2.32,2.6-.15,3.56.46,2.6,1.65,5.02,3.57,7.81,5.6Z"/>
      <path class="cls-9" d="M112.84,654.01c.21-5.42,2.96-9.97,5.14-14.7,1.24-.61,1.54-2.95,3.64-1.97-2.57,5.39-4.9,10.88-6.52,16.65-.75,0-1.51.02-2.26.03Z"/>
      <path class="cls-3" d="M28.19,246.22c-3.17-3.65-3.45-8.23-4.08-12.7.44-.31.88-.62,1.32-.93.53-.05,1.05-.1,1.57-.14,0,0,.08.08.08.08-.63,4.28,3.36,7.07,3.59,11.07-1.28.44-2.12,1.3-2.48,2.62Z"/>
      <path class="cls-12" d="M76.85,178.72c-1.11-1.27-2.34-2.45-3.28-3.83-1.11-1.62-4.21-3.03-2.57-5.12,1.83-2.33,4.14-.17,6.02,1.13.38,1.2,1.31,1.51,2.44,1.49,0,0,.05.02.05.02-.89,2.1-1.78,4.21-2.66,6.31Z"/>
      <path class="cls-3" d="M315.88,375.31c-4.2,1.68-8.41,3.22-12.98,1.44,2.49-.51,5.02-.91,7.47-1.56,2.98-.8,4.89-2.51,4.17-5.97.56-1.28,1.12-2.55,1.67-3.82.39,3.33,2.72,6.71-.33,9.92Z"/>
      <path class="cls-3" d="M191.28,468.23c.43-5.27-1.86-9.97-3.18-14.87,7.04,5.89,7.92,9.99,3.18,14.87Z"/>
      <path class="cls-12" d="M87.21,347.42c2.8-8.64-.36-17.82,2.44-26.45.02,6.32.04,12.63.06,18.95,0,2.78-.24,5.48-2.5,7.51Z"/>
      <path class="cls-8" d="M82.38,192.56c-.63.18-1.27.35-1.9.53-1.12-.77-1.5-2.99-3.6-1.86.3-2.67.71-5.37-2.29-6.95,6.74-1.13,6.71,4.09,7.79,8.28Z"/>
      <path class="cls-1" d="M76.85,178.72c.89-2.1,1.78-4.21,2.66-6.31.9.09,1.81.78,2.67-.11,0,0,0,0,0,0-1.06,2.19,3.4,4.51-.11,6.59-1.71,1.01-3.59,2.87-5.22-.17Z"/>
      <path class="cls-3" d="M138.02,670.14c0-3.29-.01-6.58-.02-9.86.13-.4.22-.81.26-1.23,1.24.84,1.69,2.7,3.54,2.75.12.41.24.82.36,1.23-.66,2.44-1.58,4.83-1.28,7.43-.96-.1-1.91-.21-2.87-.31Z"/>
      <path class="cls-2" d="M44.82,190.65c3.15-3.56,5.01,2.27,7.84,1.07-1.82,1.64-4.61,2.02-5.21,4.86-2.9-1.64-2.57-3.86-2.63-5.93Z"/>
      <path class="cls-8" d="M38.67,231.14c-3.93,3.74-4.93-2-7.6-2.34q3.06-4.06,7.6,2.34Z"/>
      <path class="cls-7" d="M93.16,201c-3-3.32-4.06-6.64-2.94-11.34,2.12,3.77,3.77,6.93,2.94,11.34Z"/>
      <path class="cls-3" d="M85.92,306.49c-3.23-2.33-5-5.46-5.11-9.47,2.17,2.91,4.56,5.69,5.11,9.47Z"/>
      <path class="cls-3" d="M188.19,453.45c-2.18-.13-4.62.32-5.62-2.47,2.49-.55,4.1.87,5.62,2.47Z"/>
      <path class="cls-2" d="M79.71,317.09c-2.07,1.22-4.05,2.75-8.25,1.52,3.47-.93,5.62-1.51,7.78-2.09.16.19.31.38.47.57Z"/>
      <path class="cls-4" d="M45.04,278.42c-3.14-.31-5.04-1.85-5.17-5.16,2.22,1.23,3.83,3.06,5.17,5.16Z"/>
      <path class="cls-7" d="M106.38,269.8c-2.4,1.68-5.11.87-7.71.93,2.37-1.99,5.1-.99,7.71-.93Z"/>
      <path class="cls-3" d="M75.03,287.36c-3.04-.48-3.83-2.35-3.16-5.12,2.12,1.05,2.47,3.18,3.16,5.12Z"/>
      <path class="cls-7" d="M98.07,204.61c-.41.15-.99.6-1.36.46-.49-.18-1.07-.8-1.11-1.27-.03-.37.71-1.14,1.1-1.14.91.02,1.37.74,1.37,1.94Z"/>
      <path class="cls-3" d="M85.69,310.38c.08-1.29.16-2.59.24-3.88,2.01.19,3.17,1.72,2.95,3.29-.18,1.32-1.99.93-3.19.6Z"/>
      <path class="cls-2" d="M83.12,315.33c1.61-1.23,3.14-2.71,5.69-1.98-1.41,2.12-3.47,2.1-5.45,2.27l-.25-.3Z"/>
      <path class="cls-9" d="M115.33,660.42c-.08,1.74-.16,3.48-.24,5.22-1.32-1.77-1.47-3.68-.63-5.69.38,0,.67.15.88.47Z"/>
      <path class="cls-4" d="M39.92,273.3c-1.8.06-2.68-.79-2.6-2.6,1.48.26,2.25,1.22,2.6,2.6Z"/>
      <path class="cls-2" d="M83.37,315.63c-.9,1.28-2.37,1.15-3.66,1.46-.15-.19-.31-.37-.47-.56,1.05-1.19,2.5-1.1,3.89-1.19,0,0,.24.3.24.3Z"/>
      <path class="cls-6" d="M90.95,440.69c.33.41.65.83.98,1.24-.15.12-.31.24-.46.36-.22-.5-.44-.99-.66-1.48,0,0,.15-.11.15-.11Z"/>
      <path class="cls-3" d="M378.76,210.06c-1.92.41-1.59-.81-1.4-1.93,1.33.02,1.33,1,1.4,1.93Z"/>
      <path class="cls-1" d="M69.56,204.07c.7.6,1.19,1.7.48,2.1-1,.57-.88-.87-1.33-1.37.28-.24.57-.48.85-.73Z"/>
      <path class="cls-2" d="M122.9,305.28c-.3.27-.59.54-.89.81l-.33-.61c.41-.07.81-.13,1.22-.2h0Z"/>
      <path class="cls-1" d="M79.46,172.39c-1.13.02-2.06-.29-2.44-1.49.81.5,1.63,1,2.44,1.49Z"/>
      <path class="cls-12" d="M86.19,350.08c-.2-1.04-.07-1.96.95-2.55-.32.85-.63,1.7-.95,2.55Z"/>
      <path class="cls-2" d="M203.54,561.88c.35-.33.7-.65,1.04-.97-.35.33-.7.65-1.04.97Z"/>
      <path class="cls-2" d="M202.19,563.07c.34-.3.68-.61,1.02-.91-.34.3-.68.61-1.02.91Z"/>
      <path class="cls-2" d="M204.92,560.62c.32-.31.65-.63.97-.94-.32.31-.65.63-.97.94Z"/>
      <path class="cls-7" d="M283.78,352.71c-.35-.34-.36-.68-.02-1.02.17.34.18.68.02,1.02Z"/>
      <path class="cls-7" d="M283.03,348.51c-.32-.21-.42-.49-.3-.85.2.17.4.34.57.53.01.01-.17.21-.27.32Z"/>
      <path class="cls-7" d="M48.75,325.52c-.45-.31-.89-.62-1.34-.92.45.31.89.62,1.34.92Z"/>
      <path class="cls-8" d="M84.01,194.13c-.66-.45-1.32-.9-1.98-1.35,1.35-.56,1.53.59,1.98,1.35Z"/>
      <path class="cls-12" d="M47.55,288.54c.7.53,1.06,1.11.31,1.88,0,0-.18,0-.18,0-.04-.62-.09-1.25-.13-1.88Z"/>
      <path class="cls-6" d="M27,232.45c-.52.05-1.04.1-1.57.14.58-.4,1.16-.79,1.74-1.19.1.37.05.72-.17,1.04Z"/>
      <path class="cls-7" d="M114.09,269.81c-.52.51-1.03.51-1.55,0,.51,0,1.03,0,1.55,0Z"/>
      <path class="cls-4" d="M34.8,268.22c-.91-.07-1.25-.65-1.34-1.46.45.49.89.98,1.34,1.46Z"/>
      <path class="cls-4" d="M36.09,269.46c-.91.03-1.33-.44-1.35-1.31.75.13,1.43.33,1.35,1.31Z"/>
      <path class="cls-4" d="M37.36,270.75c-.86-.03-1.3-.48-1.33-1.34.95-.05,1.35.44,1.33,1.34Z"/>
      <path class="cls-14" d="M226.43,274.51c-.56-4.36-4.43-4.1-7.26-4.88-14.86-4.11-30-7.27-44.19-13.61-18.91-8.45-34.1-20.88-43.59-39.67-1.48-2.94-2.24-5.91-2.2-9.13,6.93-8.46,16.74-11.67,26.72-14.33,8.22-2.19,16.68-2.78,25.2-2.24,1.87.12,3.85.39,5.39-1.16,11.63,5.24,22.69,11.95,35.6,13.93,8.19,2.4,16.69,1.48,25.02,2.38,5.5,2.4,11.28.77,16.92,1.11,5.68.34,10.02,1.71,12.39,7.74,2.39,6.07,5.8,11.73,9.58,17.14,4.08,5.85,3.32,8.7-3.16,12.04-15.01,7.74-30.05,7.31-44.21-1.69-5.96-3.79-12.82-7.79-13.34-16.43,1.55-.83,1.46-1.58-.11-2.27l.05.06c-2.5-5.71-6.46-9.54-13.1-8.68-5.84.76-10.77,6.49-11.58,13.52,3.57-4.12,5.68-8.96,12-9.51,0,3.33-.07,6.43.02,9.52.11,3.74-.44,7.74,3.47,10.19,8.29,7.25,16.32,14.85,24.98,21.63,5.49,4.3,10.51,10.33,18.82,9.18,7.33,5.01,15.1,6.67,23.62,2.48-1.52,12.38-8.96,17.22-21.33,13.74-12-3.38-23.82-7.36-35.72-11.07Z"/>
      <path class="cls-5" d="M226.43,274.51c11.9,3.72,23.73,7.7,35.72,11.07,12.37,3.48,19.81-1.36,21.33-13.74-8.52,4.19-16.29,2.53-23.62-2.48-6.99-4.81-11.42-12.57-18.6-16.97-11.01-6.75-17.07-11.4-19.02-16.8,1.21.8,2.12,1.23,2.82,1.9,19.33,18.34,41.97,20.31,66.31,13.17,6.42-1.89,12.77-2.87,19.39-1.72,2.84.87,5.28-.06,7.59-1.64,1.14-.98,3.09-.43,3.88-2.06,9.8-7.74,10.53-23.73,1.17-34.24-.93,9.29-6.19,15.15-13.9,19.15-14.04.6-28.89-9.85-33.76-23.75,7.28-5.08,15.59-7.53,24.13-9.31,1.64-.34,3.53,1.6,5.25-.65-9.01-8.12-14.81-18.1-17.58-29.83.14-3.28-.57-6.66,1.05-10.57,2.87,3.55-.18,7.5,2.24,10.93,8.67-8.13,18.99-9.73,30.3-7.4,3.66.75,6.85,2.28,9.59,4.59,8.57,7.2,7.1,16.65-3.79,25.37-1.29,1.03-3.23,1.28-3.83,3.15-4.21,1.46-8.41,2.91-12.54,4.34-.09,2.78,2.29,2.52,3.56,3.13,13.29,6.28,19.9,17.76,18.44,32.38-1.13,11.3-10.13,18.78-22.37,19.28-4.54.18-10.08-3.07-13.44,3.45-.95,1.85-.49-4.35-3.51-1.74-3.13,2.69-6.57,5.61-6.14,9.84.82,8.1-1.59,15-5.9,21.53-6.16,5.78-13.15,5.75-20.73,3.35-12.31-3.89-24.23-9.06-36.99-11.5-2.46-.47-4.93-.9-7.38-2.21h10.32ZM320.94,190.05c7.37-5.12,11.3-14.9,8.66-20.59-2.36-5.08-10.55-8.29-17.5-6.71,6.21,7.83,8.21,17.02,8.84,27.3ZM299.01,201.64c8.42,2.95,14.86,8.34,20.22,16.09,1.56-4.21,4.82-7.65.55-10.84-6.01-4.5-12.93-6.41-20.77-5.25ZM282.23,268.37c-12.91,3.09-20.72-7.39-30.77-11.86,14.05,15.15,21.39,18.04,30.77,11.86ZM300.91,186.52c-.73-7.99-.75-14.81.28-22.01-9.58,5.35-9.66,10.27-.28,22.01ZM275.13,257.31c4.62,6.52,7.41,5.91,12.48-2.98-4.27,1.45-8.62.96-12.48,2.98ZM315.85,176.07c.22-1.52.04-2.72-1.39-2.48-3.28.53-3.08,4.86-6.09,6-.33.13,1.1,2.05,2.55,1.92,3.49-.32,4.14-3.16,4.92-5.44Z"/>
      <path class="cls-10" d="M275.74,206.38c4.87,13.9,19.72,24.35,33.76,23.75-2.03,4.31.54,7.71,3.87,8.18,4.8.68,6.36,4.09,8.86,6.92-.79,1.63-2.74,1.08-3.88,2.06-4.43-2.63-9.78-2.75-14.35-6.76.32,5.75,6.77,3.94,6.77,8.4-6.62-1.15-12.96-.16-19.39,1.72-24.34,7.14-46.97,5.17-66.31-13.17-.7-.66-1.62-1.1-2.82-1.9,1.95,5.4,8.01,10.05,19.02,16.8,7.18,4.4,11.6,12.16,18.6,16.97-8.3,1.15-13.33-4.88-18.82-9.18-8.66-6.79-16.69-14.38-24.98-21.63-.36-6.61-.72-13.22-1.07-19.73,5.05-.94,6.03,5.14,10.27,4.68,0,0-.05-.06-.05-.06-1.29.82.15,1.51.11,2.27.52,8.63,7.38,12.63,13.34,16.43,14.16,9.01,29.19,9.44,44.21,1.69,6.48-3.34,7.24-6.2,3.16-12.04-3.78-5.41-7.2-11.07-9.58-17.14-2.37-6.02-6.71-7.39-12.39-7.74-5.64-.34-11.43,1.3-16.92-1.11,9.56-.73,19.09.14,28.62.59ZM223.06,234.95c-1.57-.88-2.3-1.22-2.95-1.67-.75-.52-1.31.15-1.21.47.2.68.71,1.36,1.28,1.8.26.2.96-.17,2.88-.6Z"/>
      <path class="cls-5" d="M222.1,203.42c-12.91-1.98-23.97-8.69-35.6-13.93-3.93-2.5-5.47-7.58-10.04-9.36-1.6-.62-1.12-1.35-.48-2.33,12.07-18.78,30.79-23.73,47.59-15.6,12.5,6.05,15.52,23.16,12.51,33.1-1.67,5.52-8.07,7.48-13.98,8.12ZM229.65,196.95c7.33-9.5,2.42-26.61-9.32-32.19-.65,1.95-.26,3.69.8,5.35.82,10.37-.17,20.16-9.07,27.56,6.17,3.25,11.98,3.79,17.59-.72ZM207.23,162.66c-12.23-.3-19.94,6.18-21.47,17.56-.58,4.28,3.8,8.32,11.36,10.42-.31-10.53,1.78-20.24,10.11-27.99ZM210.16,177.74c-.31-2.05-1.92-2.6-3.64-2.79-2.71-.3-3.07,1.66-3.2,3.67-.14,2.15.94,3.19,3.07,2.9,2.13-.29,3.38-1.58,3.76-3.78Z"/>
      <path class="cls-5" d="M212.85,107.5c2.02-.09,7.33,7.4,6.1,10.26-.55,1.29-1.62,1.14-2.65,1.14-16.75-.05-28.7,8.82-38.91,20.92-.41.49-.8,1-1.25,1.43-1.43,1.38-2.53,4.51-4.83,2.98-2.45-1.63-.42-4.21.56-6.21,6.11-12.44,15.65-21.29,28.28-26.91,3.71-1.65,7.53-2.84,12.7-3.61Z"/>
      <path class="cls-5" d="M327.37,122.04c6.24,6.4,12.19,12.99,14.17,22.12-.15,1.86-.31,3.72-.5,6.06-2.99-1.16-3.78-3.63-5.06-5.65-5.87-9.27-13.12-16.99-23.35-21.63-3.21-1.45-6.48-1.98-9.86-2-4.77-.04-4.9-3.1-4.45-6.51.57-4.26,3.5-2.53,5.83-2.11,8.46,1.51,16.02,5.19,23.23,9.72Z"/>
      <path class="cls-4" d="M287.54,166.6c2.77,11.73,8.57,21.7,17.58,29.83-1.72,2.25-3.61.32-5.25.65-7.69-8.56-13.8-17.93-15.25-29.7-.35-2.86-.93-5.75.72-8.85,1.66,2.79.27,5.88,2.2,8.07Z"/>
      <path class="cls-3" d="M246.9,77.94c-.28.23-.56.45-.85.68-.09-.15-.17-.3-.26-.45.36-.09.72-.17,1.07-.26,0,0,.03.03.03.03Z"/>
      <path class="cls-10" d="M299.55,435.53c2.66,1.71,2.6,3.45.06,5.22-.02-1.74-.04-3.48-.06-5.22Z"/>
      <path class="cls-4" d="M267.37,347.44c1.05.41,1.35,1.27,1.38,2.3-.49.7-1.33,1.38-1.8.46-.34-.68.25-1.82.42-2.76Z"/>
      <path class="cls-10" d="M271.4,502.23c-.47.23-.95.47-1.42.7.47-.23.95-.47,1.42-.7Z"/>
      <path class="cls-5" d="M278.64,312.54c.36,2.67-.55,4.12-3.98,4.29,1.74-1.88,2.86-3.08,3.98-4.29Z"/>
      <path class="cls-5" d="M284.19,299.14c-.82.92-1.65,1.83-2.47,2.75l.13-.09c-1.61-1.8.09-2.61,1.08-3.63.42.33.83.65,1.25.98Z"/>
      <polygon class="cls-5" points="281.72 301.89 281.64 301.72 281.86 301.79 281.72 301.89"/>
      <path class="cls-4" d="M68.24,517.18c2.87-7.91-2.29-13.71-5.28-20.07,4.4-2.63,9.48-1.44,14.14-2.52-2.96,3.43-7.3,1.11-11.08,2.72,1.31,4.23,4.09,7.68,6.08,11.53,2.47,4.77,1.21,7.28-3.86,8.34Z"/>
      <path class="cls-5" d="M38.56,347.92c.63-4.16,1.56-8.05,6.96-8.12,3.7-.05,4.9,2.28,4.45,5.4-.55,3.89-.82,8.32-6.36,8.58-4.09.19-4.74-2.7-5.05-5.87ZM47.11,346.5c.04-1.84-.26-3.21-1.89-3.08-2.4.18-3.81,1.61-3.8,4.13,0,1.57.48,3.3,2.29,3.07,2.4-.3,3.15-2.41,3.4-4.12Z"/>
      <path class="cls-4" d="M141.8,661.8c-1.85-.05-2.3-1.91-3.54-2.75-.07-.8-.13-1.61-.2-2.42,1.81-5.93,4.2-11.44,10.33-14.24,0,0,.25.29.25.29-3.87,5.8-7,11.87-6.83,19.11Z"/>
      <path class="cls-11" d="M138.06,656.63c.07.81.13,1.61.2,2.42-.04.42-.12.83-.26,1.23-.76,0-1.51.01-2.27.02.78-1.22,1.55-2.44,2.32-3.67Z"/>
      <path class="cls-4" d="M151.09,641.29c-.82.46-1.64.92-2.46,1.39,0,0-.24-.29-.24-.29.6-.94,1.51-1.26,2.57-1.26l.13.16Z"/>
      <path class="cls-4" d="M150.96,641.14c.42-.29.84-.58,1.28-.84.02-.01.22.26.33.4-.49.2-.99.4-1.48.6,0,0-.13-.16-.13-.16Z"/>
      <path class="cls-9" d="M122.95,636.05c.09,1.01-.38,1.44-1.38,1.34-.61-1.55.34-1.49,1.38-1.34Z"/>
      <path class="cls-9" d="M124.05,634.91c-.4.42-.81.83-1.21,1.25-.2-1,.49-1.14,1.21-1.25Z"/>
      <path class="cls-4" d="M309.45,648.01c1.01.01,1.26.67,1.27,1.51-.97-.05-1.29-.64-1.27-1.51Z"/>
      <path class="cls-4" d="M313.43,651.67c.34.31.69.62,1.03.92-.72.11-1.08-.19-1.03-.92Z"/>
      <path class="cls-4" d="M312.19,650.46c.29.27.58.53.86.8-.29-.27-.58-.53-.86-.8Z"/>
      <path class="cls-14" d="M318.41,93.25c-.93-1.81-1.66-3.77-2.84-5.4-1.84-2.54-2.41-4.68.43-6.93,1-.79,2.81-1.9,1.53-3.51-1.18-1.48-2.67-.06-3.96.42-.96.36-1.88,1.01-2.85.05,5.05-11.31,13.18-20.06,22.9-27.49,3.03-2.32,4.14-1.21,4.01,2.15-.06,1.48-.19,2.96-.47,4.41-1.1,5.71-7.43,10.34-3.56,17.12.14.24-.13.9-.41,1.16-4.68,4.38-7.46,8.8-1.03,14.08.68.56-.04,2.43-1.35,2.12-4.43-1.03-8.07,2.7-12.41,1.81Z"/>
      <path class="cls-11" d="M328.77,633.54c2.06,5.03,5.36,9.6,5.67,15.28-4.42,1.63-8.87-.52-13.29.11-.02-1.27-.05-2.53-.07-3.8,3.85-1.4,9.4-1.8,4.38-8.1-1.21-1.52-.02-3.2.68-4.71.44-.01.89-.02,1.33-.04l-.06-.05c-.07.96.27,1.49,1.33,1.3h.03Z"/>
      <path class="cls-11" d="M320.95,644.99c-1.55-.05-2.37-.84-2.4-2.41,1.58.02,2.37.84,2.4,2.41Z"/>
      <path class="cls-11" d="M318.38,642.39c-.81-.78-1.63-1.55-2.44-2.33,1.58-.02,2.4.75,2.44,2.33Z"/>
      <path class="cls-9" d="M327.47,632.27c-.44.01-.89.02-1.33.04-.08-.38-.13-.77-.16-1.16.26-.24.5-.51.71-.8.65.48,1.89.73.78,1.93Z"/>
      <path class="cls-9" d="M325.99,631.15c-.26-.35-.53-.71-.79-1.06.5.09,1,.18,1.5.26-.21.29-.45.55-.71.8Z"/>
      <path class="cls-9" d="M328.74,633.52c-1.05.19-1.4-.34-1.33-1.3.47-.03.93-.05,1.4-.08-.03.46-.05.92-.08,1.38Z"/>
      <path class="cls-5" d="M202.03,393.24c-2.26-.48-4.54-.92-6.79-1.43-8.88-2.03-10.85-6.17-7.01-14.57.78-1.7,1.71-2.8,3.87-2.03,4.64,1.66,9.54,1.58,14.36,1.87,3.8.24,4.74,1.96,3.46,5.43-.8,2.16-1.01,4.54-1.84,6.68-1.03,2.65-2.55,5-6.05,4.05ZM194.26,379.07c-2.83-.12-4.4,1.62-4.63,4.65-.25,3.32,5.89,6.63,12.51,6.74,4.45.08,5.01-4.29,4.51-6.21-1.77-6.74-8.48-3.4-12.4-5.18Z"/>
      <path class="cls-5" d="M314.53,369.21c.73,3.46-1.19,5.18-4.17,5.97-2.45.66-4.98,1.05-7.47,1.56-5.67-.13-9.41-4.31-8.7-9.49.22-1.58,1.2-1.43,2.16-1.59,2.29-.4,4.59-.76,6.88-1.13.32.27.91.54.91.82.04,2.58-1.95.97-2.95,1.27-1.23.36-2.54.37-2.85,1.92-.28,1.36.17,2.53,1.42,3.18,3.56,1.86,7.57,2.3,10.78.18,2.96-1.95,1.54-5.23.05-7.91,4.61-.75,1.9,4.02,3.94,5.21Z"/>
      <path class="cls-7" d="M310.59,364c1.49,2.68,2.91,5.96-.05,7.91-3.21,2.12-7.22,1.68-10.78-.18-1.25-.65-1.69-1.82-1.42-3.18.31-1.55,1.62-1.56,2.85-1.92,1.01-.29,2.99,1.31,2.95-1.27,0-.28-.59-.55-.91-.82,2.45-.18,4.91-.36,7.36-.53Z"/>
      <path class="cls-4" d="M28.19,246.22c.36-1.32,1.2-2.18,2.48-2.62.37.49,1.1,1.03,1.04,1.47-.26,2.19,4,4.79.58,6.12-3.32,1.29-2.59-3.32-4.11-4.97Z"/>
      <path class="cls-5" d="M65.31,267.02c-4.09-4.95-5.58-11.33-9.05-16.61-1.2-1.83-1.74-4.69-5.05-3.56-1.22-.95-2.43-1.91-3.65-2.86,0-.88-.02-1.75-.03-2.63,5.43-1.21,8.59,1.18,10.63,6.15,2.38,5.77,5.21,11.35,7.84,17.01-.23.83-.46,1.67-.69,2.5Z"/>
      <path class="cls-5" d="M47.55,241.39c-2.3.14-2.71-1.32-2.65-3.16,1.56.48,3.29.83,2.65,3.16Z"/>
      <path class="cls-4" d="M47.56,243.98c1.22.95,2.43,1.91,3.65,2.86,0,0,.03.52.03.52-.31.57-.62,1.13-.92,1.7-.15,1.07-.39,2.11-1.47,2.68-1.26-.45-1.17-1.72-1.62-2.67.15-1.7-1.42-3.5.33-5.09Z"/>
      <path class="cls-3" d="M48.85,251.75c1.08-.57,1.31-1.6,1.47-2.68,1.48,1.8,1.31,3.61.03,5.42-1.1-.58-1.4-1.61-1.49-2.74Z"/>
      <path class="cls-5" d="M55.19,265.07c.85,1.5,1.69,3,2.54,4.5-3.57.03-2.55-2.52-2.54-4.5Z"/>
      <path class="cls-5" d="M54.07,200.53c-1.74-1.12-1.49-2.86-1.41-4.55,1.39,1.23,2.04,2.69,1.41,4.55Z"/>
      <path class="cls-5" d="M55.86,203.08c-1.3-.42-2.01-1.26-1.87-2.68,1.74.12,1.26,1.77,1.87,2.68Z"/>
      <path class="cls-5" d="M63.04,218.36c-.85-.17-1.34-.45-.41-1.22.14.41.27.81.41,1.22Z"/>
      <path class="cls-5" d="M225.25,223.5c-4.24.45-5.21-5.63-10.27-4.68.35,6.51.71,13.12,1.07,19.73-3.91-2.46-3.36-6.46-3.47-10.19-.09-3.09-.02-6.19-.02-9.52-6.32.55-8.43,5.4-12,9.51.82-7.03,5.74-12.76,11.58-13.52,6.63-.87,10.6,2.97,13.1,8.68Z"/>
      <path class="cls-5" d="M225.31,225.7c.04-.76-1.4-1.45-.11-2.27,1.57.68,1.66,1.43.11,2.27Z"/>
      <path class="cls-14" d="M322.23,245.23c-2.5-2.83-4.06-6.24-8.86-6.92-3.32-.47-5.9-3.86-3.87-8.18,7.71-4,12.97-9.86,13.9-19.15,9.36,10.52,8.63,26.5-1.17,34.24Z"/>
      <path class="cls-10" d="M320.94,190.05c-.63-10.28-2.63-19.47-8.84-27.3,6.95-1.57,15.14,1.63,17.5,6.71,2.64,5.69-1.3,15.47-8.66,20.59Z"/>
      <path class="cls-12" d="M299.01,201.64c7.83-1.16,14.76.75,20.77,5.25,4.27,3.2,1.02,6.64-.55,10.84-5.35-7.75-11.79-13.14-20.22-16.09Z"/>
      <path class="cls-7" d="M282.23,268.37c-9.38,6.19-16.71,3.3-30.77-11.86,10.05,4.47,17.86,14.94,30.77,11.86Z"/>
      <path class="cls-10" d="M300.91,186.52c-9.38-11.74-9.3-16.66.28-22.01-1.03,7.2-1.01,14.02-.28,22.01Z"/>
      <path class="cls-4" d="M275.13,257.31c3.86-2.01,8.21-1.53,12.48-2.98-5.07,8.89-7.87,9.5-12.48,2.98Z"/>
      <path class="cls-12" d="M310.76,248.93c0-4.46-6.45-2.65-6.77-8.4,4.57,4.01,9.92,4.13,14.35,6.76-2.31,1.57-4.75,2.51-7.59,1.64Z"/>
      <path class="cls-10" d="M315.85,176.07c-.78,2.28-1.43,5.12-4.92,5.44-1.46.13-2.89-1.79-2.55-1.92,3.01-1.14,2.81-5.47,6.09-6,1.43-.23,1.61.96,1.39,2.48Z"/>
      <path class="cls-5" d="M223.06,234.95c-1.92.43-2.62.8-2.88.6-.57-.44-1.08-1.12-1.28-1.8-.1-.32.47-1,1.21-.47.65.45,1.38.79,2.95,1.67Z"/>
      <path class="cls-11" d="M207.23,162.66c-8.33,7.75-10.42,17.46-10.11,27.99-7.56-2.1-11.94-6.15-11.36-10.42,1.54-11.38,9.24-17.86,21.47-17.56Z"/>
      <path class="cls-10" d="M229.65,196.95c-5.61,4.51-11.42,3.96-17.59.72,8.9-7.4,9.89-17.19,9.07-27.56,3.73,3.31,6.09,12.74,4.31,19.48-1.13,4.25.16,6.42,4.21,7.36Z"/>
      <path class="cls-4" d="M229.65,196.95c-4.05-.95-5.34-3.11-4.21-7.36,1.79-6.74-.58-16.17-4.31-19.48-1.06-1.66-1.45-3.41-.8-5.35,11.74,5.58,16.65,22.7,9.32,32.19Z"/>
      <path class="cls-14" d="M210.16,177.74c-.39,2.2-1.63,3.49-3.76,3.78-2.14.29-3.21-.74-3.07-2.9.13-2.01.5-3.98,3.2-3.67,1.71.19,3.33.74,3.64,2.79Z"/>
      <path class="cls-9" d="M47.11,346.5c-.25,1.71-1,3.82-3.4,4.12-1.81.23-2.28-1.5-2.29-3.07,0-2.52,1.4-3.95,3.8-4.13,1.64-.12,1.93,1.25,1.89,3.08Z"/>
      <path class="cls-2" d="M194.26,379.07c3.91,1.78,10.63-1.56,12.4,5.18.5,1.92-.06,6.28-4.51,6.21-6.62-.11-12.76-3.42-12.51-6.74.23-3.04,1.8-4.77,4.63-4.65Z"/>
    </g>
  </g>
</svg>